<?xml version="1.0" encoding="UTF-8"?>
<svg version="1.1" xmlns="http://www.w3.org/2000/svg" width="502" height="461">
<path d="M0 0 C2.58481808 2.20680121 5.11112098 4.4490142 7.59375 6.76953125 C8.78484375 7.87361328 8.78484375 7.87361328 10 9 C10.57129639 9.54551514 11.14259277 10.09103027 11.73120117 10.65307617 C16.56185958 15.10979452 21.36098225 17.96520438 27.3125 20.6875 C41.04562506 27.26423382 54.34805745 35.13904319 66 45 C67.01191406 45.83015625 68.02382813 46.6603125 69.06640625 47.515625 C84.4246457 60.19308814 96.34566713 74.21577698 107 91 C107.53923096 91.84618896 107.53923096 91.84618896 108.08935547 92.70947266 C126.42775371 121.69289339 138.59244231 157.17531192 141.921875 191.3046875 C141.99186707 192.00705536 142.06185913 192.70942322 142.13397217 193.43307495 C142.41631572 196.30961929 142.6940736 199.18544592 142.92773438 202.06640625 C143.69379475 211.27560517 144.70610893 217.65843888 152 224 C157.78382361 230.35086514 162.58008773 236.43019506 166.4375 244.125 C166.75517334 244.75728516 167.07284668 245.38957031 167.40014648 246.04101562 C174.64579371 261.22941885 176.46475418 281.02103312 171.20361328 297.16308594 C168.50093926 304.08427409 164.73344066 310.28286077 160 316 C158.99839844 317.24330078 158.99839844 317.24330078 157.9765625 318.51171875 C153.98338103 323.21848319 150.14312354 326.62006233 144.9375 329.9375 C137.90963167 334.96376026 135.89103009 341.2534382 132.9140625 349.13671875 C128.13493077 361.71715289 120.36038457 371.52423318 111 381 C110.44183594 381.63035156 109.88367188 382.26070313 109.30859375 382.91015625 C80.75382193 414.44714967 29.26703066 420.61826671 -10.53125 422.8059082 C-19.30630976 423.22550693 -28.09161501 423.24469977 -36.875 423.25 C-38.400681 423.25101212 -38.400681 423.25101212 -39.95718384 423.25204468 C-107.08946083 423.18222601 -198.3256438 418.66810345 -249.1875 368.5625 C-262.78094958 354.45641518 -271.05415976 337.14046365 -275 318 C-275.18747803 317.17218018 -275.37495605 316.34436035 -275.56811523 315.49145508 C-276.99349958 308.10993483 -277.06624161 301.07548281 -276.87890625 293.58203125 C-276.85619659 292.55170273 -276.83348694 291.52137421 -276.81008911 290.45982361 C-276.7101207 286.15454357 -276.60436809 281.85112371 -276.4309082 277.5480957 C-275.31855384 263.2645835 -275.31855384 263.2645835 -281.03125 250.796875 C-283.44409663 248.65521361 -283.44409663 248.65521361 -286 247 C-286.68634521 246.52780029 -287.37269043 246.05560059 -288.07983398 245.5690918 C-289.99010135 244.39400317 -291.91579864 243.40587585 -293.9375 242.4375 C-305.00548035 236.66633882 -313.54624897 229.5742569 -318.25 217.75 C-323.59196859 200.64298153 -319.11252723 183.13208539 -311.13256836 167.6394043 C-304.78888249 155.79620496 -296.38845076 144.35197375 -286.1171875 135.6328125 C-284.77239115 134.01495718 -284.77239115 134.01495718 -285.0859375 131.71484375 C-286.22059832 128.34480413 -287.90791417 125.45457193 -289.75 122.4375 C-297.56951629 109.21958757 -302.74548796 95.81846068 -299.421875 80.30078125 C-297.57191798 75.61702642 -294.90814103 72.96716354 -291.25 69.5625 C-288.1830356 66.37146746 -286.74498709 64.24019984 -286.6640625 59.85546875 C-286.71101017 58.31942042 -286.78205262 56.7839522 -286.875 55.25 C-287.50063269 44.87312671 -284.91282955 37.79793447 -278.0703125 29.72265625 C-271.67088159 23.64448191 -263.89679687 20.28491735 -255.07958984 19.8762207 C-244.36665351 20.30681042 -234.11021016 26.02405648 -224.6875 30.6875 C-223.41045292 31.31106533 -222.1332707 31.93435398 -220.85595703 32.55737305 C-212.66987207 36.5722457 -204.63392774 40.80308848 -196.7734375 45.42578125 C-194.04587784 47.09208779 -194.04587784 47.09208779 -191 48 C-190.59910156 47.47792969 -190.19820312 46.95585938 -189.78515625 46.41796875 C-187.86832807 43.93608918 -185.93695921 41.46620271 -184 39 C-183.34773437 38.16855469 -182.69546875 37.33710937 -182.0234375 36.48046875 C-157.14342602 5.4037503 -125.33765603 -22.97999908 -84.20727539 -27.79931641 C-51.82058218 -30.7438869 -24.99384315 -20.14966187 0 0 Z " fill="#030303" transform="translate(326,32)"/>
<path d="M0 0 C32.20307324 28.62009901 44.86098312 71.75590872 51 113 C51.10441406 113.67901367 51.20882813 114.35802734 51.31640625 115.05761719 C52.84281033 125.39948789 53.2182931 135.75718626 53.29653931 146.19821167 C53.30699517 147.58328304 53.32178732 148.96833003 53.34140015 150.353302 C53.46021914 160.03815685 52.4065294 168.63520437 50 178 C49.67 178 49.34 178 49 178 C48.89510254 177.17761841 48.89510254 177.17761841 48.78808594 176.33862305 C47.20717208 157.51733529 47.20717208 157.51733529 38 142 C27.9220757 137.22967396 18.02548261 136.81947616 7.07421875 136.84765625 C5.80817307 136.84959488 4.54212738 136.85153351 3.23771667 136.85353088 C-19.2904525 136.94465735 -41.81682588 137.71266514 -64.33496094 138.33239746 C-69.48780872 138.4729742 -74.64077912 138.60872064 -79.79375744 138.74441433 C-84.81886485 138.87719833 -89.84390216 139.01249597 -94.86892128 139.14857674 C-97.23957942 139.21258794 -99.61025446 139.27597683 -101.98094749 139.33868217 C-109.32155005 139.533921 -116.66104996 139.75004836 -124 140 C-124.93873081 140.03103443 -125.87746162 140.06206886 -126.84463882 140.09404373 C-129.47171013 140.18603605 -132.09764905 140.29317234 -134.72387695 140.40649414 C-135.48255916 140.432406 -136.24124136 140.45831785 -137.02291393 140.48501492 C-144.29808948 140.83551878 -150.06325876 142.79414647 -155.01416016 148.19873047 C-161.11492081 156.80459816 -160.56322473 169.95029565 -161.0625 180.125 C-161.19126416 182.66968581 -161.32763772 185.21400124 -161.47265625 187.7578125 C-161.52687744 188.8627002 -161.58109863 189.96758789 -161.63696289 191.10595703 C-161.98496303 193.88012897 -162.57300845 195.62444275 -164 198 C-176.01123354 198.9738838 -186.26060924 195.66696882 -196.06640625 188.66796875 C-202.22935414 183.35164805 -206.73037708 176.05934549 -208 168 C-210.49526318 133.81489442 -202.96196679 94.20650271 -192 62 C-191.62359375 60.86175781 -191.2471875 59.72351563 -190.859375 58.55078125 C-184.1728829 39.78622418 -173.61480984 23.43318639 -160 9 C-159.42636719 8.37351563 -158.85273438 7.74703125 -158.26171875 7.1015625 C-153.40242314 1.97552751 -147.82363371 -2.03341312 -142 -6 C-141.25363281 -6.51433594 -140.50726563 -7.02867188 -139.73828125 -7.55859375 C-96.95171667 -35.11224528 -38.69898918 -32.93970476 0 0 Z " fill="#F2F3F3" transform="translate(376,121)"/>
<path d="M0 0 C2.58481808 2.20680121 5.11112098 4.4490142 7.59375 6.76953125 C8.78484375 7.87361328 8.78484375 7.87361328 10 9 C10.57129639 9.54551514 11.14259277 10.09103027 11.73120117 10.65307617 C16.56185958 15.10979452 21.36098225 17.96520438 27.3125 20.6875 C41.04562506 27.26423382 54.34805745 35.13904319 66 45 C67.01191406 45.83015625 68.02382813 46.6603125 69.06640625 47.515625 C84.4246457 60.19308814 96.34566713 74.21577698 107 91 C107.53923096 91.84618896 107.53923096 91.84618896 108.08935547 92.70947266 C126.42775371 121.69289339 138.59244231 157.17531192 141.921875 191.3046875 C141.99186707 192.00705536 142.06185913 192.70942322 142.13397217 193.43307495 C142.41631572 196.30961929 142.6940736 199.18544592 142.92773438 202.06640625 C143.69379475 211.27560517 144.70610893 217.65843888 152 224 C157.78382361 230.35086514 162.58008773 236.43019506 166.4375 244.125 C166.75517334 244.75728516 167.07284668 245.38957031 167.40014648 246.04101562 C174.64579371 261.22941885 176.46475418 281.02103312 171.20361328 297.16308594 C168.50093926 304.08427409 164.73344066 310.28286077 160 316 C158.99839844 317.24330078 158.99839844 317.24330078 157.9765625 318.51171875 C153.98338103 323.21848319 150.14312354 326.62006233 144.9375 329.9375 C137.90963167 334.96376026 135.89103009 341.2534382 132.9140625 349.13671875 C128.13493077 361.71715289 120.36038457 371.52423318 111 381 C110.44183594 381.63035156 109.88367188 382.26070313 109.30859375 382.91015625 C80.75382193 414.44714967 29.26703066 420.61826671 -10.53125 422.8059082 C-19.30630976 423.22550693 -28.09161501 423.24469977 -36.875 423.25 C-38.400681 423.25101212 -38.400681 423.25101212 -39.95718384 423.25204468 C-107.08946083 423.18222601 -198.3256438 418.66810345 -249.1875 368.5625 C-262.78094958 354.45641518 -271.05415976 337.14046365 -275 318 C-275.18747803 317.17218018 -275.37495605 316.34436035 -275.56811523 315.49145508 C-276.99349958 308.10993483 -277.06624161 301.07548281 -276.87890625 293.58203125 C-276.85619659 292.55170273 -276.83348694 291.52137421 -276.81008911 290.45982361 C-276.7101207 286.15454357 -276.60436809 281.85112371 -276.4309082 277.5480957 C-275.31855384 263.2645835 -275.31855384 263.2645835 -281.03125 250.796875 C-283.44409663 248.65521361 -283.44409663 248.65521361 -286 247 C-286.68634521 246.52780029 -287.37269043 246.05560059 -288.07983398 245.5690918 C-289.99010135 244.39400317 -291.91579864 243.40587585 -293.9375 242.4375 C-305.00548035 236.66633882 -313.54624897 229.5742569 -318.25 217.75 C-323.59196859 200.64298153 -319.11252723 183.13208539 -311.13256836 167.6394043 C-304.78888249 155.79620496 -296.38845076 144.35197375 -286.1171875 135.6328125 C-284.77239115 134.01495718 -284.77239115 134.01495718 -285.0859375 131.71484375 C-286.22059832 128.34480413 -287.90791417 125.45457193 -289.75 122.4375 C-297.56951629 109.21958757 -302.74548796 95.81846068 -299.421875 80.30078125 C-297.57191798 75.61702642 -294.90814103 72.96716354 -291.25 69.5625 C-288.1830356 66.37146746 -286.74498709 64.24019984 -286.6640625 59.85546875 C-286.71101017 58.31942042 -286.78205262 56.7839522 -286.875 55.25 C-287.50063269 44.87312671 -284.91282955 37.79793447 -278.0703125 29.72265625 C-271.67088159 23.64448191 -263.89679687 20.28491735 -255.07958984 19.8762207 C-244.36665351 20.30681042 -234.11021016 26.02405648 -224.6875 30.6875 C-223.41045292 31.31106533 -222.1332707 31.93435398 -220.85595703 32.55737305 C-212.66987207 36.5722457 -204.63392774 40.80308848 -196.7734375 45.42578125 C-194.04587784 47.09208779 -194.04587784 47.09208779 -191 48 C-190.59910156 47.47792969 -190.19820312 46.95585938 -189.78515625 46.41796875 C-187.86832807 43.93608918 -185.93695921 41.46620271 -184 39 C-183.34773437 38.16855469 -182.69546875 37.33710937 -182.0234375 36.48046875 C-157.14342602 5.4037503 -125.33765603 -22.97999908 -84.20727539 -27.79931641 C-51.82058218 -30.7438869 -24.99384315 -20.14966187 0 0 Z M-162.64453125 38.19921875 C-167.25266537 43.6785424 -171.63901949 49.32331291 -176 55 C-176.93724179 56.2137411 -177.87474025 57.42728404 -178.8125 58.640625 C-182.23437514 63.07417435 -185.64994717 67.51178819 -189 72 C-189.49886719 71.5153125 -189.99773437 71.030625 -190.51171875 70.53125 C-196.78660931 64.67318341 -203.55585886 60.23195759 -211 56 C-212.09699219 55.37480469 -213.19398438 54.74960938 -214.32421875 54.10546875 C-218.17826507 51.98639065 -222.06615523 49.96610691 -226 48 C-226.93972656 47.53029785 -227.87945312 47.0605957 -228.84765625 46.57666016 C-231.9904844 45.02461559 -235.14837279 43.50809919 -238.3125 42 C-239.31450439 41.50653076 -240.31650879 41.01306152 -241.34887695 40.50463867 C-247.65465167 37.55749345 -253.01369622 35.87724476 -260 37 C-264.35486688 38.83021231 -267.25016381 41.96897524 -270 45.75 C-272.59664199 54.18908646 -270.93009965 61.27257434 -267 69 C-265.75803994 71.10629712 -264.45294505 73.02814601 -263 75 C-263.556875 74.94199219 -264.11375 74.88398437 -264.6875 74.82421875 C-271.11885714 74.44398649 -275.09468813 75.81442915 -280 80 C-283.02390215 83.32629237 -284.24288692 85.8283908 -284.4375 90.25 C-283.59962608 105.50946146 -273.84262016 118.23563367 -265.1015625 130.13671875 C-263.69026977 132.05953952 -262.32304856 134.01542715 -261 136 C-261.56074219 136.24363281 -262.12148438 136.48726562 -262.69921875 136.73828125 C-267.39439556 139.31305563 -271.10946347 143.36358871 -275 147 C-275.91845703 147.83724609 -275.91845703 147.83724609 -276.85546875 148.69140625 C-291.13605125 162.22573503 -303.7499912 181.57842157 -304.375 201.625 C-304.11373322 210.4453665 -302.43811963 216.09021336 -296.07543945 222.25146484 C-292.57475544 225.20075303 -288.65230366 227.23581975 -284.625 229.375 C-273.01429959 235.84972788 -264.52600866 242.86406125 -260.3828125 255.94921875 C-259.9074073 258.4960323 -259.8678842 260.90985055 -259.875 263.5 C-259.87242187 264.4384375 -259.86984375 265.376875 -259.8671875 266.34375 C-260 269 -260 269 -260.49560547 270.78466797 C-265.86883583 294.3842286 -259.75583858 323.56984253 -247.8203125 344.34765625 C-244.10916242 349.75510454 -239.62238797 354.37761203 -235 359 C-233.88431641 360.11568359 -233.88431641 360.11568359 -232.74609375 361.25390625 C-226.79668447 366.85270578 -220.0894863 370.98830901 -213 375 C-211.98808594 375.57492187 -210.97617188 376.14984375 -209.93359375 376.7421875 C-193.43032136 385.53043317 -175.26198806 391.2475367 -157 395 C-154.81135977 395.51602087 -152.62379119 396.03661555 -150.4375 396.5625 C-132.20072622 400.72255321 -113.76552562 403.08429886 -95.1875 405.125 C-94.52129639 405.20049072 -93.85509277 405.27598145 -93.16870117 405.35375977 C-76.55455367 407.09754734 -59.91025093 407.15851713 -43.22290039 407.13037109 C-39.4408773 407.12500479 -35.65897266 407.13035048 -31.87695312 407.13671875 C-7.92118969 407.19327878 -7.92118969 407.19327878 15.875 404.6875 C16.70032227 404.55778809 17.52564453 404.42807617 18.37597656 404.29443359 C52.95102998 398.70276304 87.19317328 388.54081704 109.265625 359.4453125 C113.79731697 353.05603509 117.29096739 346.63778733 120.1875 339.375 C120.44724609 338.7243457 120.70699219 338.07369141 120.97460938 337.40332031 C121.98922055 334.80586273 122.93719749 332.24844514 123.62109375 329.54296875 C125.20486619 323.31837475 129.66825417 321.19283837 134.9296875 317.921875 C146.0897554 310.93618364 153.17001051 300.58130956 157 288 C160.16393074 272.28581066 157.06912676 258.02736539 148.28320312 244.77880859 C143.93314375 238.74864638 138.50538738 232.20800238 132.203125 228.23828125 C128.75805112 224.73823279 129.13579638 221.05747882 128.9375 216.3125 C128.80115821 214.31071691 128.65765838 212.30941129 128.5078125 210.30859375 C128.39228027 208.74794189 128.39228027 208.74794189 128.27441406 207.15576172 C123.47520523 151.96486016 101.93820709 95.95662635 58.875 59.5625 C45.00532003 48.4821454 29.57284284 39.42715591 13.5 31.9375 C7.36417278 28.92015639 2.86025939 24.74827185 -2 20 C-21.88415767 0.76271026 -44.83555852 -12.63585291 -73.23388672 -12.35205078 C-109.99277723 -11.21339683 -139.16078757 11.64724725 -162.64453125 38.19921875 Z " fill="#010101" transform="translate(326,32)"/>
<path d="M0 0 C6.50721813 -0.12886204 13.0138517 -0.22242848 19.52209473 -0.27993774 C21.64203802 -0.30235236 23.76191012 -0.33336055 25.8815918 -0.37350464 C28.81598466 -0.42714861 31.74896189 -0.44872234 34.68377686 -0.46234131 C35.55881363 -0.48496536 36.4338504 -0.50758942 37.33540344 -0.53089905 C41.76909307 -0.51560791 43.47786359 -0.39523959 47.05267334 2.47076416 C51.64424473 8.43435487 51.66214282 13.68646919 52.04705811 21.06109619 C52.12440186 22.09621338 52.20174561 23.13133057 52.28143311 24.19781494 C52.52313275 29.44135438 52.52229487 32.87290889 49.48455811 37.24859619 C45.62222414 43.28487242 46.51064198 50.34441153 47.58416748 57.16851807 C48.44354592 60.6821793 50.53242559 63.0809888 52.73065186 65.86187744 C57.17640573 73.28905677 53.72012378 84.60485792 51.88226318 92.59552002 C49.04923692 103.71702211 43.24610246 112.14530754 33.28631592 118.11676025 C24.61018209 122.98687507 15.71665161 126.65999488 6.04705811 129.06109619 C5.09331299 129.30787109 5.09331299 129.30787109 4.12030029 129.55963135 C-36.55183613 139.89721343 -98.68131708 145.48497113 -138.95294189 132.06109619 C-138.12099132 126.00560171 -137.25136955 119.95656172 -136.35870361 113.909729 C-135.9845986 111.28334072 -135.6527145 108.65535065 -135.33184814 106.02203369 C-135.12339766 104.51405692 -134.91382728 103.00623438 -134.70294189 101.49859619 C-134.63035156 100.80387207 -134.55776123 100.10914795 -134.48297119 99.39337158 C-134.06732513 96.63624125 -133.61610101 94.58820684 -131.37969971 92.81060791 C-129.6097816 91.82088157 -127.78168791 90.93737032 -125.95294189 90.06109619 C-120.23899291 84.34714721 -117.83741104 78.68451474 -117.57794189 70.68609619 C-117.77116282 64.86531568 -118.26827341 57.96812011 -122.39141846 53.503479 C-128.27600077 47.02590381 -127.71617975 40.60148143 -127.45294189 32.18609619 C-127.44262939 30.87511963 -127.43231689 29.56414307 -127.42169189 28.21343994 C-127.11975461 9.39897307 -127.11975461 9.39897307 -122.57794189 4.49859619 C-118.16358495 2.08121025 -114.4425506 1.92541397 -109.43243408 1.87164307 C-108.7832583 1.86332994 -108.13408253 1.8550168 -107.46523476 1.84645176 C-105.31012225 1.81987647 -103.15499883 1.79993231 -100.99981689 1.77984619 C-99.4781336 1.76204753 -97.95645591 1.74376312 -96.43478394 1.72502136 C-93.2032903 1.68594201 -89.97178284 1.64951013 -86.74023438 1.61526489 C-78.33965378 1.52596816 -69.93926686 1.42071506 -61.53887939 1.31500244 C-60.71401157 1.3047661 -59.88914375 1.29452976 -59.03927994 1.28398323 C-47.2174576 1.13616517 -35.4010715 0.91689041 -23.58334351 0.56481934 C-15.72319964 0.33402964 -7.86179764 0.16266012 0 0 Z " fill="#4E515A" transform="translate(357.95294189453125,274.93890380859375)"/>
<path d="M0 0 C6.11252175 4.49130722 12.40583666 9.249328 17.640625 14.76171875 C17.640625 15.42171875 17.640625 16.08171875 17.640625 16.76171875 C15.87525391 16.70951172 15.87525391 16.70951172 14.07421875 16.65625 C-28.56926143 15.78373791 -64.44321174 29.60954078 -95.359375 58.76171875 C-95.88273437 59.25027344 -96.40609375 59.73882812 -96.9453125 60.2421875 C-100.80659581 64.39146707 -104.00320937 69.19934384 -107.359375 73.76171875 C-108.35130859 75.07849609 -108.35130859 75.07849609 -109.36328125 76.421875 C-112.80998587 81.11921974 -115.36287208 85.57967661 -117.33496094 91.06518555 C-118.35183341 93.74186726 -119.50920363 96.29760767 -120.73046875 98.88671875 C-131.10993325 121.57093219 -136.63045193 146.6792326 -140.01416016 171.30200195 C-140.27628428 173.1696827 -140.554967 175.03504844 -140.84130859 176.89916992 C-142.7166847 189.32244832 -143.47707385 201.76657117 -144.16015625 214.30371094 C-144.32659375 217.19270701 -144.53646137 220.07260949 -144.765625 222.95703125 C-145.55604491 235.58696206 -140.78511404 244.45766353 -133.109375 254.19921875 C-120.51757652 267.33475399 -104.40271024 270.52943335 -87.20703125 273.47265625 C-86.53124023 273.59439209 -85.85544922 273.71612793 -85.15917969 273.84155273 C-83.27631553 274.18042202 -81.39017077 274.50091308 -79.50390625 274.8203125 C-75.99580042 275.8705653 -74.5416047 276.84854804 -72.359375 279.76171875 C-71.67672589 284.54026252 -71.55560754 286.55606757 -74.234375 290.57421875 C-85.15849191 298.22110059 -99.38171129 296.52872554 -111.91796875 294.51171875 C-126.41181752 291.35301391 -138.56532776 284.02406717 -149.08203125 273.80078125 C-151.26870467 271.5712571 -151.26870467 271.5712571 -154.359375 270.76171875 C-151.90118084 279.17741877 -149.09696183 288.11206857 -142.67578125 294.4140625 C-141.359375 295.76171875 -141.359375 295.76171875 -141.359375 297.76171875 C-140.28623047 298.16777344 -140.28623047 298.16777344 -139.19140625 298.58203125 C-136.35129105 299.76508613 -133.74603452 301.16306164 -131.046875 302.63671875 C-118.34307277 308.98861987 -105.36306906 310.41509266 -91.359375 310.76171875 C-91.09480547 317.64052648 -92.10839637 324.00812464 -93.359375 330.76171875 C-93.64554688 332.35306641 -93.64554688 332.35306641 -93.9375 333.9765625 C-94.40529051 336.57279982 -94.87938212 339.1677147 -95.359375 341.76171875 C-121.86704599 340.87974193 -149.30503993 332.76943991 -172.359375 319.76171875 C-173.3596875 319.21 -174.36 318.65828125 -175.390625 318.08984375 C-188.93529202 310.10001208 -197.56140958 299.34069088 -202.42651367 284.50830078 C-203.38133681 280.67351516 -203.61781005 277.40174812 -203.625 273.45703125 C-203.62777451 272.78035904 -203.63054901 272.10368683 -203.63340759 271.4065094 C-203.63753296 269.23303286 -203.62503307 267.06013694 -203.609375 264.88671875 C-203.60660553 264.14362457 -203.60383606 263.4005304 -203.60098267 262.63491821 C-203.55373568 251.86594822 -203.08407133 241.40616361 -201.359375 230.76171875 C-201.11256295 229.0147891 -200.86930276 227.2673553 -200.62890625 225.51953125 C-200.3736005 223.70425725 -200.11710605 221.88915 -199.859375 220.07421875 C-199.74102295 219.23528076 -199.6226709 218.39634277 -199.50073242 217.53198242 C-199.32247925 216.34052612 -199.32247925 216.34052612 -199.140625 215.125 C-199.03814453 214.42673096 -198.93566406 213.72846191 -198.83007812 213.0090332 C-198.23619078 210.17359079 -197.27782065 207.50840335 -196.359375 204.76171875 C-195.87489387 202.78024722 -195.42004153 200.79134042 -194.9921875 198.796875 C-194.74855469 197.67450439 -194.50492188 196.55213379 -194.25390625 195.39575195 C-193.99996094 194.217146 -193.74601562 193.03854004 -193.484375 191.82421875 C-190.08147133 176.34162354 -186.1715463 161.5217749 -180.359375 146.76171875 C-179.61041616 144.84906048 -178.8617353 142.93629335 -178.11328125 141.0234375 C-176.94802447 138.04542633 -175.78131547 135.06807906 -174.60668945 132.09375 C-172.40184282 126.49762293 -170.28728122 120.87842948 -168.26367188 115.21411133 C-165.77631949 108.4685782 -162.57274574 102.23328608 -159.0859375 95.95703125 C-155.67562035 89.64562982 -152.53820618 83.19199401 -149.359375 76.76171875 C-148.699375 76.76171875 -148.039375 76.76171875 -147.359375 76.76171875 C-147.27558594 76.07078125 -147.19179687 75.37984375 -147.10546875 74.66796875 C-146.18224773 71.07175703 -144.45096984 68.31691427 -142.421875 65.26171875 C-142.02436035 64.65295898 -141.6268457 64.04419922 -141.21728516 63.41699219 C-138.00339705 58.56796803 -134.54219036 53.94021475 -130.94262695 49.37255859 C-128.51507714 46.29131133 -126.26197981 43.16430297 -124.109375 39.88671875 C-116.15948066 28.30421719 -105.23692576 18.28885318 -94.984375 8.76171875 C-94.44554687 8.25382812 -93.90671875 7.7459375 -93.3515625 7.22265625 C-66.59338972 -17.62421847 -30.29106255 -20.80022485 0 0 Z " fill="#4D5058" transform="translate(296.359375,62.23828125)"/>
<path d="M0 0 C3.89451358 3.31595583 7.56410011 6.7603508 11.125 10.4375 C17.5104819 16.92634401 24.94149581 20.41400166 33.03417969 24.41040039 C49.82980755 32.74020796 64.34814975 43.07426909 78.3125 55.5625 C79.51712891 56.63757813 79.51712891 56.63757813 80.74609375 57.734375 C117.96340555 92.97131608 136.82299619 151.07820045 139.44482422 201.08642578 C139.49187572 203.16162117 139.52773898 205.23706235 139.5625 207.3125 C139.7558013 211.81278074 139.7558013 211.81278074 141.828125 215.66015625 C143.79345877 217.41458844 143.79345877 217.41458844 146 218.921875 C156.90719085 226.66008473 165.25624603 240.57071921 167.9140625 253.56640625 C169.96263551 268.97087193 166.64137112 281.98276479 157.82421875 294.7109375 C152.34259374 301.59357337 144.56414889 306.44433347 137.0625 310.8984375 C134.4723824 313.36136183 133.98153723 315.9663889 133 319.375 C125.35567337 344.08705591 109.27631049 362.70688553 86.55908203 374.7331543 C66.55643108 384.92036892 45.37234352 389.39854784 23.3125 392.5625 C22.2184082 392.72878906 21.12431641 392.89507812 19.99707031 393.06640625 C5.17560108 395.06198175 -9.91807382 394.7487834 -24.83984375 394.74780273 C-28.52095353 394.74997548 -32.20175594 394.76815769 -35.8828125 394.78710938 C-52.23799856 394.82536824 -68.39885079 394.00130784 -84.6875 392.5625 C-86.54245762 392.40500407 -88.3974368 392.24776187 -90.25244141 392.09082031 C-103.18564716 390.99428431 -115.91613134 388.83484708 -128.6875 386.5625 C-130.20437795 386.30049664 -131.72130048 386.03875113 -133.23828125 385.77734375 C-167.1862861 379.81503352 -202.93517526 368.53715101 -227.6875 343.5625 C-228.42484375 342.85867188 -229.1621875 342.15484375 -229.921875 341.4296875 C-236.35619642 334.87066993 -239.9889916 326.85757105 -243.6875 318.5625 C-244.11160156 317.6240625 -244.53570312 316.685625 -244.97265625 315.71875 C-251.73734718 299.05137463 -254.58885438 273.83042183 -249.6875 256.5625 C-248.78275401 247.41121683 -250.1920132 239.40025374 -255.640625 231.859375 C-261.27562559 225.27864005 -267.46845144 221.00564734 -274.8984375 216.703125 C-282.75200912 212.06646258 -289.28801571 207.88309561 -293.125 199.375 C-295.74845221 181.59382392 -289.8255162 166.15154871 -279.70703125 151.7421875 C-277.77054921 149.27616846 -275.76704585 146.9088555 -273.6875 144.5625 C-272.56988281 143.28246094 -272.56988281 143.28246094 -271.4296875 141.9765625 C-259.30315421 128.28796729 -259.30315421 128.28796729 -252.6875 123.5625 C-252.0275 123.5625 -251.3675 123.5625 -250.6875 123.5625 C-251.44933594 122.5209375 -252.21117187 121.479375 -252.99609375 120.40625 C-258.26294608 113.12731287 -263.36059976 105.81120614 -267.8125 98 C-268.36055298 97.05640625 -268.36055298 97.05640625 -268.91967773 96.09375 C-272.76219872 89.17154129 -274.83884721 81.50384359 -273.6875 73.5625 C-271.19434462 68.16066333 -267.1598411 64.76862704 -261.6875 62.5625 C-258.6311458 62.18815584 -255.74588979 62.24391773 -252.6875 62.5625 C-253.09742188 61.91023438 -253.50734375 61.25796875 -253.9296875 60.5859375 C-258.7944942 52.69517449 -262.10474296 46.03026739 -260.6875 36.5625 C-258.49998994 31.07964217 -255.11198776 27.01887182 -249.6875 24.5625 C-240.36229266 22.3693824 -231.81180109 27.5851346 -223.6875 31.5625 C-223.00816406 31.88847168 -222.32882813 32.21444336 -221.62890625 32.55029297 C-216.9366138 34.80299863 -212.2958352 37.14280147 -207.6875 39.5625 C-207.07632324 39.88331543 -206.46514648 40.20413086 -205.83544922 40.53466797 C-196.10878614 45.70663653 -186.52038174 51.72961826 -178.6875 59.5625 C-177.67172676 58.24199479 -176.6559859 56.92146466 -175.64038086 55.60083008 C-174.7432901 54.43489249 -173.84565234 53.26937559 -172.94750977 52.10424805 C-170.65673582 49.13098035 -168.37369883 46.1526784 -166.11328125 43.15625 C-161.57101929 37.15375335 -156.88050544 31.37856303 -151.77734375 25.8359375 C-149.82878585 23.71619788 -147.93992667 21.55766531 -146.0625 19.375 C-106.93815419 -25.41563038 -48.10105094 -40.25335057 0 0 Z M-87.6875 -10.4375 C-88.70972656 -10.086875 -89.73195312 -9.73625 -90.78515625 -9.375 C-128.33275119 4.87230875 -154.95413755 42.77950003 -176.6875 74.5625 C-177.3475 73.881875 -178.0075 73.20125 -178.6875 72.5 C-184.58441688 66.62475537 -190.88851484 61.42875354 -197.8125 56.8125 C-198.57312744 56.30517334 -199.33375488 55.79784668 -200.11743164 55.27514648 C-209.5159385 49.16871852 -219.55252757 44.31146912 -229.6875 39.5625 C-231.15533936 38.86519775 -231.15533936 38.86519775 -232.65283203 38.15380859 C-233.62462402 37.6995752 -234.59641602 37.2453418 -235.59765625 36.77734375 C-236.47687744 36.36476318 -237.35609863 35.95218262 -238.26196289 35.52709961 C-241.7464127 34.14138635 -243.9915404 33.94650673 -247.6875 34.5625 C-249.78992444 35.41469923 -249.78992444 35.41469923 -250.6875 37.5625 C-252.69758732 49.84636697 -242.46961821 61.25338201 -235.85839844 70.85449219 C-234.10876479 73.40671007 -232.39845971 75.98423352 -230.6875 78.5625 C-232.56695312 78.03849609 -232.56695312 78.03849609 -234.484375 77.50390625 C-236.13540902 77.04424337 -237.78645111 76.58460947 -239.4375 76.125 C-240.2625 75.89490234 -241.0875 75.66480469 -241.9375 75.42773438 C-242.73671875 75.20537109 -243.5359375 74.98300781 -244.359375 74.75390625 C-245.0925293 74.54967041 -245.82568359 74.34543457 -246.58105469 74.13500977 C-247.27618164 73.94608154 -247.97130859 73.75715332 -248.6875 73.5625 C-249.36458008 73.3780835 -250.04166016 73.19366699 -250.73925781 73.00366211 C-254.71643638 72.10306541 -258.3334381 72.00698743 -262.125 73.5625 C-264.13672848 76.13751245 -264.02600703 78.17653818 -263.95727539 81.36914062 C-263.50063352 85.08178369 -261.94831301 88.05218462 -260.1875 91.3125 C-259.8258374 92.00569336 -259.4641748 92.69888672 -259.09155273 93.41308594 C-255.07165129 100.97032643 -250.39751049 108.01692914 -245.21875 114.828125 C-244.60181274 115.63975098 -244.60181274 115.63975098 -243.97241211 116.46777344 C-242.81621438 117.97611846 -241.64487115 119.47281881 -240.47265625 120.96875 C-238.8667552 123.30205043 -238.09789178 124.80049816 -237.6875 127.5625 C-238.26757812 127.68238281 -238.84765625 127.80226562 -239.4453125 127.92578125 C-253.57985843 131.9395983 -267.93252204 150.44791881 -274.80517578 162.52685547 C-279.50001835 171.18013426 -283.96050008 179.60185472 -284 189.6875 C-284.01675781 190.68007812 -284.03351563 191.67265625 -284.05078125 192.6953125 C-283.54285108 196.70413768 -282.00792305 199.26868497 -279.13671875 202.08203125 C-274.81167442 205.25628773 -270.30770398 207.95215474 -265.625 210.5625 C-253.21781875 217.52950908 -244.81923722 226.6393489 -240.6875 240.5625 C-240.21760339 244.60665335 -240.28748317 248.57538006 -240.40234375 252.640625 C-240.41511856 253.76966248 -240.42789337 254.89869995 -240.4410553 256.06195068 C-240.48298822 259.64606328 -240.55129839 263.22891004 -240.625 266.8125 C-241.38350012 287.42440433 -241.38350012 287.42440433 -237.6875 307.5625 C-237.35020874 308.69099365 -237.35020874 308.69099365 -237.00610352 309.84228516 C-229.53502684 332.87692263 -211.40973309 346.80713347 -190.6875 357.5625 C-155.23589504 374.84356909 -114.53755744 380.09801468 -75.6875 383.5625 C-74.76515564 383.64656601 -73.84281128 383.73063202 -72.89251709 383.81724548 C-64.68266569 384.51507271 -56.53396772 384.72316132 -48.296875 384.73046875 C-46.94044971 384.73369988 -45.58402474 384.73706516 -44.2276001 384.74055481 C-41.39716794 384.7464942 -38.56676605 384.74840046 -35.73632812 384.74780273 C-32.89186156 384.74772207 -30.04755809 384.75457767 -27.203125 384.76831055 C1.53192139 384.90473543 30.69091961 384.46020797 58.3125 375.5625 C58.93543945 375.36430664 59.55837891 375.16611328 60.20019531 374.96191406 C86.09624977 366.62045473 106.77693279 352.38771115 119.5 327.9375 C122.68293666 321.69283865 124.65847598 315.53996804 125.77026367 308.61474609 C126.1328125 306.6953125 126.1328125 306.6953125 127.3125 303.5625 C130.1875 302.25390625 130.1875 302.25390625 133.3125 301.5625 C145.01120577 295.62418358 152.61585155 286.80412112 157.484375 274.6328125 C160.25730397 264.35204754 158.65620019 253.15534774 154.3125 243.5625 C149.82219367 235.94012898 143.27577337 227.04389279 135.50341797 222.50634766 C130.64505687 219.60614684 130.64505687 219.60614684 129.70678711 216.66162109 C129.49845986 214.31441421 129.49887916 212.04308466 129.5625 209.6875 C129.5392311 207.88399395 129.50765615 206.08058024 129.46875 204.27734375 C129.45199219 203.33874512 129.43523437 202.40014648 129.41796875 201.43310547 C128.65624694 180.70087149 124.0293866 159.14199598 117.3125 139.5625 C116.80446885 138.01960323 116.2966763 136.47662788 115.7890625 134.93359375 C100.68222543 89.69180955 70.87122066 54.48139137 28.3125 32.5625 C25.81548888 31.44149001 23.298806 30.44149105 20.75 29.4375 C13.12333754 26.34776946 8.07174608 21.53862567 2.484375 15.62890625 C-9.29392838 3.31289771 -24.98350729 -8.22441481 -41.6875 -12.4375 C-42.82251953 -12.74300781 -42.82251953 -12.74300781 -43.98046875 -13.0546875 C-58.53400275 -16.34897582 -73.68797559 -15.35756407 -87.6875 -10.4375 Z " fill="#ECECEC" transform="translate(315.6875,44.4375)"/>
<path d="M0 0 C0.33 0 0.66 0 1 0 C0.95699852 9.71833537 -2.47036716 18.47459692 -9 25.75 C-44.85880974 58.06233405 -112.9974311 51.81355629 -157.05932617 49.86468506 C-182.62188965 48.45937012 -182.62188965 48.45937012 -190 46 C-188.39450297 34.65695436 -186.78460856 23.31651779 -185 12 C-184.67 12 -184.34 12 -184 12 C-183.92345464 16.51617599 -183.89771304 20.59085217 -185 25 C-184.42894531 25.04898437 -183.85789063 25.09796875 -183.26953125 25.1484375 C-178.5209775 25.58630096 -173.84295252 26.17308875 -169.140625 26.96875 C-161.43180014 28.16375649 -153.71870523 28.70652965 -145.9375 29.125 C-145.18319702 29.16702545 -144.42889404 29.2090509 -143.6517334 29.25234985 C-130.019763 29.99295633 -116.40036648 30.18836996 -102.75 30.1875 C-101.82855194 30.18840637 -100.90710388 30.18931274 -99.95773315 30.19024658 C-85.42145727 30.18862247 -70.81144523 30.09721149 -56.4375 27.6875 C-55.64214844 27.5548877 -54.84679687 27.42227539 -54.02734375 27.28564453 C-37.34499031 24.39497231 -15.74857823 19.12736121 -4.0390625 5.76171875 C-3.57242188 5.07722656 -3.10578125 4.39273437 -2.625 3.6875 C-1.76701156 2.44639907 -0.89707079 1.21315279 0 0 Z " fill="#3F4148" transform="translate(409,361)"/>
<path d="M0 0 C5.79181164 3.62060574 8.44685766 8.13463604 10.9375 14.3125 C16.91104371 27.86885198 26.32348077 36.81681388 40.3125 42.3125 C48.38119337 44.95190041 56.80182964 46.28165841 65.15234375 47.7109375 C65.82813477 47.83267334 66.50392578 47.95440918 67.20019531 48.07983398 C69.08305947 48.41870327 70.96920423 48.73919433 72.85546875 49.05859375 C76.36357458 50.10884655 77.8177703 51.08682929 80 54 C80.68264911 58.77854377 80.80376746 60.79434882 78.125 64.8125 C67.20088309 72.45938184 52.97766371 70.76700679 40.44140625 68.75 C22.37344567 64.81237408 5.6420729 54.10674274 -4.56640625 38.5859375 C-10.37720311 28.10433663 -12.83200851 16.17357643 -10.1875 4.375 C-7.89108909 -0.21782181 -4.74559149 -0.730091 0 0 Z " fill="#F0F0F0" transform="translate(144,288)"/>
<path d="M0 0 C0.33 0 0.66 0 1 0 C0.97381592 0.88147705 0.94763184 1.7629541 0.9206543 2.67114258 C0.83458229 5.99439358 0.77234865 9.31643246 0.7253418 12.64038086 C0.70045369 14.06895838 0.66652927 15.49741207 0.62280273 16.92553711 C0.34216273 26.33853294 1.14019811 33.67111421 6 42 C6.57363281 43.06734375 7.14726563 44.1346875 7.73828125 45.234375 C11.50255496 51.24974042 15.27365453 55.80733501 21 60 C21.76546143 60.56219238 21.76546143 60.56219238 22.54638672 61.13574219 C46.57514602 78.5446853 75.31880217 87.06859679 104.8125 88.7890625 C107 89 107 89 109 90 C108.29411026 97.05889737 107.21786614 104.01204964 106 111 C79.614133 110.43311614 51.89133853 101.91575522 29 89 C27.9996875 88.44828125 26.999375 87.8965625 25.96875 87.328125 C12.42408298 79.33829333 3.79796542 68.57897213 -1.06713867 53.74658203 C-2.02196181 49.91179641 -2.25843505 46.64002937 -2.265625 42.6953125 C-2.26826355 42.01773392 -2.2709021 41.34015533 -2.27362061 40.64204407 C-2.27741362 38.46950223 -2.26488026 36.29748817 -2.25 34.125 C-2.24822754 33.38855255 -2.24645508 32.6521051 -2.24462891 31.89334106 C-2.21416071 21.15667022 -1.81340676 10.6051913 0 0 Z " fill="#3F4147" transform="translate(95,293)"/>
<path d="M0 0 C2.60823096 1.5190259 3.79021884 2.48642787 4.94140625 5.3046875 C5.14636719 6.15289062 5.35132813 7.00109375 5.5625 7.875 C6.36953428 10.96045701 6.96444819 12.94667229 8.75 15.625 C10.85426778 19.62310877 9.6205999 23.98282182 8.33691406 28.15527344 C7.50303934 30.46930157 6.63130714 32.76613305 5.75 35.0625 C2.57860035 43.6502135 0.42671136 52.23877277 -1.31347656 61.22094727 C-2.35814087 66.51668517 -3.6611539 71.12740395 -6 76 C-11.34983037 74.58386843 -13.66930909 71.10755448 -17 67 C-23.94469876 59.304523 -32.57022877 54.98341738 -42 51 C-42.99369284 37.58514663 -34.73765252 26.25847608 -26.73046875 16.12890625 C-19.86536378 8.2298275 -11.35919318 -1.20842481 0 0 Z " fill="#E36357" transform="translate(89,185)"/>
<path d="M0 0 C0.99 0 1.98 0 3 0 C2.97381592 0.62865967 2.94763184 1.25731934 2.9206543 1.9050293 C2.21379814 19.57667622 2.21379814 19.57667622 8 36 C8.45761719 36.88558594 8.91523438 37.77117187 9.38671875 38.68359375 C16.1114919 50.78818542 25.9214136 60.16660938 39 65 C39.33 62.69 39.66 60.38 40 58 C40.33 58 40.66 58 41 58 C43.80312887 81.15815695 43.80312887 81.15815695 39 89 C26.98876646 89.9738838 16.73939076 86.66696882 6.93359375 79.66796875 C0.77064586 74.35164805 -3.73037708 67.05934549 -5 59 C-6.4443524 39.21237207 -2.84006963 19.52245736 0 0 Z " fill="#D9DADA" transform="translate(173,230)"/>
<path d="M0 0 C0.99 0.495 0.99 0.495 2 1 C1.6208609 5.48647939 -1.54983024 7.63199735 -4.75 10.375 C-8.01364003 13.20668768 -11.06049041 15.96915119 -13.765625 19.3515625 C-14.50296875 20.22554687 -15.2403125 21.09953125 -16 22 C-16.66 22 -17.32 22 -18 22 C-18.26167969 22.58523437 -18.52335937 23.17046875 -18.79296875 23.7734375 C-20.07005355 26.129225 -21.45854936 27.69562097 -23.3125 29.625 C-34.58742124 42.10503057 -43.5273517 56.53507287 -52 71 C-52.37543945 71.62986816 -52.75087891 72.25973633 -53.13769531 72.90869141 C-63.76118572 90.75901362 -72.71186711 109.80583192 -80.26904297 129.14404297 C-80.99603179 130.98992442 -81.74992245 132.82513595 -82.50390625 134.66015625 C-85.75566058 142.59851211 -88.66392631 150.6155658 -91.45825195 158.72436523 C-93.10257919 163.48536724 -94.82618135 168.19315555 -96.6875 172.875 C-98.88394344 178.46332823 -100.51069999 184.13490198 -102.09765625 189.921875 C-103 193 -103 193 -104.5625 196.625 C-106.67505275 201.58490646 -107.7864146 206.75834393 -109 212 C-109.33 212 -109.66 212 -110 212 C-109.48787476 203.71003794 -108.05321238 195.83456265 -106.1875 187.75 C-105.91615234 186.55850342 -105.64480469 185.36700684 -105.36523438 184.1394043 C-104.58847063 180.75674578 -103.7984384 177.37760107 -103 174 C-102.71503662 172.78981201 -102.71503662 172.78981201 -102.42431641 171.55517578 C-100.06973489 161.71943614 -96.69684111 152.38815799 -93 143 C-92.25104116 141.08734173 -91.5023603 139.1745746 -90.75390625 137.26171875 C-89.58864947 134.28370758 -88.42194047 131.30636031 -87.24731445 128.33203125 C-85.04246782 122.73590418 -82.92790622 117.11671073 -80.90429688 111.45239258 C-78.41694449 104.70685945 -75.21337074 98.47156733 -71.7265625 92.1953125 C-68.31624535 85.88391107 -65.17883118 79.43027526 -62 73 C-61.34 73 -60.68 73 -60 73 C-59.91621094 72.3090625 -59.83242187 71.618125 -59.74609375 70.90625 C-58.82287273 67.31003828 -57.09159484 64.55519552 -55.0625 61.5 C-54.66498535 60.89124023 -54.2674707 60.28248047 -53.85791016 59.65527344 C-50.64402205 54.80624928 -47.18281536 50.178496 -43.58325195 45.61083984 C-41.15570214 42.52959258 -38.90260481 39.40258422 -36.75 36.125 C-29.34317085 25.33371064 -19.20779338 15.59150462 -9.5 6.875 C-8.7678125 6.21242188 -8.035625 5.54984375 -7.28125 4.8671875 C-4.94481965 2.95483526 -2.69083665 1.37232669 0 0 Z " fill="#676C75" transform="translate(209,66)"/>
<path d="M0 0 C3.80606683 -0.49337903 6.09799061 -0.53195425 9.4375 1.4375 C11.77585615 5.27240408 11.6054262 8.62407141 11 13 C8.78336536 19.7884436 3.30157614 25.17129616 -2.86328125 28.5859375 C-12.85912838 33.16681579 -23.28266148 34.85716501 -34.1328125 32.24609375 C-36.54040801 31.30735238 -38.75011788 30.26747745 -41 29 C-42.0725 28.401875 -43.145 27.80375 -44.25 27.1875 C-48.79714354 23.570454 -52.70243345 19.39611961 -55 14 C-55.41707387 10.10731057 -55.57456191 7.89631658 -53.4375 4.5625 C-50.05782196 2.39603972 -47.94016013 2.43711998 -44 3 C-41.79663129 4.66921872 -40.35252341 6.54379323 -38.671875 8.71875 C-34.75240672 13.58714218 -31.31315464 16.36687638 -24.87109375 17.3125 C-18.99050419 17.63976759 -13.81578043 16.46490577 -9 13 C-6.30649357 9.86527157 -4.13006423 6.53437251 -2 3 C-1.34 2.01 -0.68 1.02 0 0 Z " fill="#060606" transform="translate(338,189)"/>
<path d="M0 0 C0.99 0.33 1.98 0.66 3 1 C2.96519531 1.6290625 2.93039063 2.258125 2.89453125 2.90625 C2.52778697 14.50235483 7.14156851 21.78521681 14 31 C15.11568359 32.10601562 15.11568359 32.10601562 16.25390625 33.234375 C18 35 18 35 18 37 C18.58007812 37.26425781 19.16015625 37.52851563 19.7578125 37.80078125 C22.09178768 39.04909202 23.86107604 40.47527282 25.875 42.1875 C41.19178657 54.22032742 58.86326312 58.42896497 78 57 C79.67567161 56.71537123 81.35010306 56.40832459 83 56 C83.66 53.69 84.32 51.38 85 49 C88 50 88 50 89 52 C89.68571429 58.97142857 89.68571429 58.97142857 87.125 62.8125 C76.20088309 70.45938184 61.97766371 68.76700679 49.44140625 66.75 C31.37344567 62.81237408 14.6420729 52.10674274 4.43359375 36.5859375 C-1.328173 26.19277786 -4.10890885 13.90840818 -1 2.25 C-0.67 1.5075 -0.34 0.765 0 0 Z " fill="#DBDBDC" transform="translate(135,290)"/>
<path d="M0 0 C0.495 0.99 0.495 0.99 1 2 C0.01987895 4.93123158 -1.02585473 7.80100836 -2.125 10.6875 C-5.33472132 19.40521214 -7.54770688 28.10447561 -9.31298828 37.21948242 C-10.35811885 42.51565123 -11.66091924 47.12691508 -14 52 C-19.34983037 50.58386843 -21.66930909 47.10755448 -25 43 C-30.84177159 36.52668553 -37.90135937 32.10160705 -46 29 C-32.69999053 15.26601709 -18.22108574 5.98692817 0 0 Z " fill="#E0574F" transform="translate(97,209)"/>
<path d="M0 0 C5.71036498 1.90345499 8.74847103 8.12487162 11.375 13.3125 C14.14673216 20.07878733 14.11602271 26.97806153 11.375 33.75 C6.75413616 42.75105769 -0.32863207 48.77621069 -10 52 C-17.03361345 52.56722689 -17.03361345 52.56722689 -20.875 50.3125 C-23.94986652 46.96632173 -24.80077111 44.39460224 -25.4375 39.9375 C-25 37 -25 37 -23.0625 34.9375 C-20.5916943 33.37433721 -18.14975862 32.03357374 -15.5625 30.6875 C-7.50239018 26.2423896 -4.39089624 20.73701916 -1.74609375 12.0234375 C-0.75174198 7.9939701 -0.27591733 4.13876 0 0 Z " fill="#EDEEEE" transform="translate(445,284)"/>
<path d="M0 0 C8.61336276 2.31040789 16.78806405 5.56842006 25 9 C25.83402344 9.31710938 26.66804688 9.63421875 27.52734375 9.9609375 C33.43038404 12.43092365 35.90090187 16.56787293 39 22 C39.50015625 22.78375 40.0003125 23.5675 40.515625 24.375 C42.66342226 27.86812081 44 30.09267449 44 34.25 C43 37 43 37 41.625 39.25 C39.26498236 43.24387601 38.21932449 47.54643891 37 52 C35.68 52 34.36 52 33 52 C31.97388051 50.34928604 30.97691857 48.68029994 30 47 C29.236875 46.60296875 28.47375 46.2059375 27.6875 45.796875 C24.01334285 43.34031644 22.53272693 40.38236359 20.4375 36.5625 C19.57172808 35.03435338 18.70447423 33.50704566 17.8359375 31.98046875 C17.38057617 31.17399902 16.92521484 30.3675293 16.45605469 29.53662109 C13.42081266 24.24886712 10.21088806 19.06235621 7.02319336 13.86547852 C4.28538114 9.3465054 1.94375642 4.91539759 0 0 Z " fill="#CD8B45" transform="translate(71,132)"/>
<path d="M0 0 C1.7604404 0.29282611 3.52085056 0.58583401 5.28125 0.87890625 C6.38210937 1.06211426 7.48296875 1.24532227 8.6171875 1.43408203 C11.63127495 1.9383152 14.64380388 2.45092469 17.65625 2.96484375 C41.84421657 7.02570253 66.32089785 9.94087125 90.86328125 10.31640625 C92.02127731 10.33718735 93.17927338 10.35796844 94.37236023 10.37937927 C98.01902167 10.44400802 101.66574601 10.5033504 105.3125 10.5625 C107.80664675 10.60576796 110.30078748 10.64938466 112.79492188 10.69335938 C118.86321756 10.7995985 124.93157378 10.90151455 131 11 C131 11.33 131 11.66 131 12 C113.675 12.495 113.675 12.495 96 13 C96 13.33 96 13.66 96 14 C90.72 14 85.44 14 80 14 C79.67 14.66 79.34 15.32 79 16 C78.34 16 77.68 16 77 16 C77.495 17.98 77.495 17.98 78 20 C68.97257422 20.16823032 60.16130258 19.72020704 51.1875 18.75 C49.93428955 18.61722656 48.6810791 18.48445313 47.38989258 18.34765625 C35.5047424 17.0361914 23.75984338 15.14197147 12 13 C10.44804288 12.72714575 8.89596751 12.4549628 7.34375 12.18359375 C-0.22189893 10.83860872 -7.63401525 9.20043189 -15 7 C-13.68 6.34 -12.36 5.68 -11 5 C-11 5.66 -11 6.32 -11 7 C-10.2575 6.649375 -9.515 6.29875 -8.75 5.9375 C-5.8677274 4.95490707 -4.78823655 4.9673198 -2 6 C-1.34 4.02 -0.68 2.04 0 0 Z " fill="#E9EAE9" transform="translate(175,418)"/>
<path d="M0 0 C5.36259885 1.54805485 9.97225391 3.97486234 14.8125 6.6875 C15.61276611 7.13593262 16.41303223 7.58436523 17.23754883 8.04638672 C27.19869936 13.71787656 38.23650493 21.07198189 43 32 C43.525815 37.87760334 42.24170978 41.43573216 39.5 46.4375 C39.16613281 47.07365234 38.83226562 47.70980469 38.48828125 48.36523438 C37.67159878 49.91693107 36.8375666 51.45947571 36 53 C35.34 53 34.68 53 34 53 C32.7734375 51.63671875 32.7734375 51.63671875 31.375 49.6875 C30.83617188 48.93984375 30.29734375 48.1921875 29.7421875 47.421875 C29.16726562 46.62265625 28.59234375 45.8234375 28 45 C27.16855469 43.92492187 27.16855469 43.92492187 26.3203125 42.828125 C21.37424598 36.33243249 17.12028155 29.4676296 12.875 22.5 C11.99618164 21.05838501 11.99618164 21.05838501 11.09960938 19.58764648 C7.2148305 13.15443952 3.54438455 6.62652835 0 0 Z " fill="#EBC66D" transform="translate(86,99)"/>
<path d="M0 0 C3.72923364 2.16911388 6.25277382 4.7329643 8.4375 8.4375 C9.57852962 13.63552382 9.60407936 18.28785639 7 23 C3.69526379 26.72842034 1.56968084 28.67674397 -3.453125 29.30859375 C-8.48488321 29.54050439 -12.0539698 29.60371427 -16.0625 26.3125 C-19.87588283 22.38964207 -21.07116914 19.03753845 -21.4375 13.625 C-21.31140528 8.5812113 -19.56314882 5.49698956 -16 2 C-10.95884249 -1.75155907 -5.87505689 -1.67991358 0 0 Z " fill="#050505" transform="translate(264,157)"/>
<path d="M0 0 C3.80333334 2.2386338 7.00833378 5.01666757 9 9 C9.59587851 14.72960103 9.1830973 19.04851531 6 24 C3.52440922 27.01376269 0.7342031 28.7288337 -3.1484375 29.3359375 C-8.62788267 29.43206812 -11.69774526 28.70194013 -16 25 C-16.78375 24.34 -17.5675 23.68 -18.375 23 C-20.9994418 18.15487667 -20.9646766 13.3695602 -20 8 C-15.43719623 -0.1935714 -8.91866146 -1.40293551 0 0 Z " fill="#040404" transform="translate(372,154)"/>
<path d="M0 0 C2.88444426 1.69986756 5.1453057 3.08904664 6.5 6.25 C6.625 9.6875 6.625 9.6875 5.5 13.25 C1.1081336 17.63066266 -3.52853878 19.39745026 -9.6875 19.5625 C-15.03128753 19.51997649 -19.18799546 18.48130165 -23.5 15.25 C-26.03418918 11.44871623 -26.18690436 9.75303968 -25.5 5.25 C-19.10522164 -2.4271537 -9.05606072 -4.2844072 0 0 Z " fill="#F1D1C7" transform="translate(249.5,198.75)"/>
<path d="M0 0 C2.0625 1.75 2.0625 1.75 3 4 C3.06190985 7.40504196 2.97207951 9.83410096 0.7265625 12.52734375 C-4.60163807 17.19290008 -9.43655362 17.29139863 -16.23828125 17.21875 C-20.99582753 16.84191465 -24.39366719 15.50269843 -27.9375 12.1875 C-29.41010958 9.15565674 -29.54421134 7.33329447 -29 4 C-21.65373473 -5.23530492 -9.91357177 -4.95678589 0 0 Z " fill="#F1D0C7" transform="translate(401,196)"/>
<path d="M0 0 C0.83824814 -0.00095673 1.67649628 -0.00191345 2.54014587 -0.00289917 C4.31297887 -0.0035801 6.08581436 -0.00173184 7.85864258 0.00244141 C10.58225052 0.00779757 13.30569404 0.00249007 16.02929688 -0.00390625 C17.74869828 -0.00324558 19.46809959 -0.00196466 21.1875 0 C22.41715233 -0.00303635 22.41715233 -0.00303635 23.67164612 -0.00613403 C29.41238868 0.01785743 29.41238868 0.01785743 30.52734375 1.1328125 C30.90234375 3.9453125 30.90234375 3.9453125 30.52734375 7.1328125 C25.96289342 12.28622417 19.59073733 13.85432217 12.9609375 14.45703125 C5.25786275 14.68244918 -1.79783853 14.3344346 -8.47265625 10.1328125 C-10.76279278 6.6976077 -10.65108598 5.1474815 -10.47265625 1.1328125 C-7.20298362 -0.50202382 -3.5923251 -0.00889239 0 0 Z " fill="#6A7077" transform="translate(362.47265625,282.8671875)"/>
<path d="M0 0 C8.61336276 2.31040789 16.78806405 5.56842006 25 9 C25.83402344 9.31710938 26.66804688 9.63421875 27.52734375 9.9609375 C33.23171377 12.34779482 36.31848216 16.48460535 39 22 C39 22.99 39 23.98 39 25 C36.86437246 27.13562754 35.93453261 27.63318342 33 28 C32.34 27.34 31.68 26.68 31 26 C28.70788531 25.24732293 26.3907985 24.56943241 24.0625 23.9375 C17.03488372 22.01162791 17.03488372 22.01162791 14 21 C13.67 21.99 13.34 22.98 13 24 C11.38874818 21.31668947 9.78733701 18.62762926 8.1875 15.9375 C7.73568359 15.18533203 7.28386719 14.43316406 6.81835938 13.65820312 C4.17808583 9.20635503 1.92160125 4.80719514 0 0 Z " fill="#E8C36B" transform="translate(71,132)"/>
<path d="M0 0 C1.5320105 0.13269287 1.5320105 0.13269287 3.0949707 0.26806641 C4.22894287 0.36780762 5.36291504 0.46754883 6.53125 0.5703125 C21.78598453 1.78611413 37.04677869 2.06588931 52.34375 2.3203125 C54.1688208 2.35073639 54.1688208 2.35073639 56.03076172 2.3817749 C63.03079347 2.49609051 70.03092203 2.60089699 77.03125 2.6953125 C77.03125 3.0253125 77.03125 3.3553125 77.03125 3.6953125 C59.70625 4.1903125 59.70625 4.1903125 42.03125 4.6953125 C42.03125 5.0253125 42.03125 5.3553125 42.03125 5.6953125 C36.75125 5.6953125 31.47125 5.6953125 26.03125 5.6953125 C25.70125 6.3553125 25.37125 7.0153125 25.03125 7.6953125 C24.37125 7.6953125 23.71125 7.6953125 23.03125 7.6953125 C23.52625 9.6753125 23.52625 9.6753125 24.03125 11.6953125 C13.2282682 12.04442143 2.74412388 10.96230498 -7.96875 9.6953125 C-8.29875 8.7053125 -8.62875 7.7153125 -8.96875 6.6953125 C-8.30875 6.3653125 -7.64875 6.0353125 -6.96875 5.6953125 C-7.62875 5.0353125 -8.28875 4.3753125 -8.96875 3.6953125 C-8.63875 3.0353125 -8.30875 2.3753125 -7.96875 1.6953125 C-8.62875 1.3653125 -9.28875 1.0353125 -9.96875 0.6953125 C-6.47360633 -0.13326416 -3.56893613 -0.3464921 0 0 Z " fill="#E8E8E8" transform="translate(228.96875,426.3046875)"/>
<path d="M0 0 C3.94853139 3.67621888 6.78507163 6.68103597 7.296875 12.203125 C6.94600414 16.69057861 5.63045726 19.550855 3.5 23.4375 C3.16613281 24.07365234 2.83226563 24.70980469 2.48828125 25.36523438 C1.67159878 26.91693107 0.8375666 28.45947571 0 30 C-0.66 30 -1.32 30 -2 30 C-3.3671875 28.42578125 -3.3671875 28.42578125 -4.875 26.3125 C-6.61916557 23.88602027 -8.33320661 21.62176547 -10.3125 19.375 C-12.30467898 16.57119255 -12.68450509 14.39157025 -13 11 C-12.01 11 -11.02 11 -10 11 C-10 10.34 -10 9.68 -10 9 C-9.34 9 -8.68 9 -8 9 C-8 7.68 -8 6.36 -8 5 C-7.13375 4.87625 -7.13375 4.87625 -6.25 4.75 C-3.3840696 3.79468987 -2.0009236 2.21530827 0 0 Z " fill="#C98C44" transform="translate(122,122)"/>
<path d="M0 0 C2 1 2 1 2.796875 3.2890625 C3.12053017 7.60861417 0.97471384 9.50125227 -1.6875 12.7109375 C-7.24295756 18.21008974 -13.99392371 22.67692933 -21.875 23.3125 C-25.0362121 23.26601159 -26.02416887 22.98581393 -28.875 21.3125 C-32.05760229 17.84907986 -32.94803266 15.3771345 -33.125 10.6875 C-33.063125 9.3571875 -33.063125 9.3571875 -33 8 C-31.02 8.99 -31.02 8.99 -29 10 C-29.33 10.99 -29.66 11.98 -30 13 C-19.51717537 12.96713848 -13.0294192 10.74912511 -4.84765625 4.3046875 C-3 3 -3 3 -1 3 C-0.67 2.01 -0.34 1.02 0 0 Z " fill="#DCDDDD" transform="translate(453,313)"/>
<path d="M0 0 C0 3 0 3 -1.11254883 4.66918945 C-3.83604828 6.58948379 -5.89253414 6.33954177 -9.19921875 6.29296875 C-10.40771484 6.28330078 -11.61621094 6.27363281 -12.86132812 6.26367188 C-14.12396484 6.23853516 -15.38660156 6.21339844 -16.6875 6.1875 C-18.59885742 6.16719727 -18.59885742 6.16719727 -20.54882812 6.14648438 C-23.69964057 6.11108199 -26.84961045 6.0616979 -30 6 C-29.34 5.67 -28.68 5.34 -28 5 C-28.2784375 3.7934375 -28.2784375 3.7934375 -28.5625 2.5625 C-28.706875 1.716875 -28.85125 0.87125 -29 0 C-28 -1 -28 -1 -25.27734375 -1.09765625 C-23.62412109 -1.08025391 -23.62412109 -1.08025391 -21.9375 -1.0625 C-20.28041016 -1.04896484 -20.28041016 -1.04896484 -18.58984375 -1.03515625 C-17.73519531 -1.02355469 -16.88054687 -1.01195312 -16 -1 C-16 -1.66 -16 -2.32 -16 -3 C-14.37585622 -3.19477739 -12.75063577 -3.38059458 -11.125 -3.5625 C-10.22007812 -3.66691406 -9.31515625 -3.77132813 -8.3828125 -3.87890625 C-4.76660704 -4.06268063 -2.67551436 -2.31877911 0 0 Z " fill="#F1F2F2" transform="translate(312,433)"/>
<path d="M0 0 C0.495 1.98 0.495 1.98 1 4 C0.29617187 4.27972656 -0.40765625 4.55945313 -1.1328125 4.84765625 C-16.20961832 10.96891814 -27.73988246 17.49687893 -39.6015625 28.48339844 C-41.1875 29.8984375 -41.1875 29.8984375 -44 32 C-44.99 31.67 -45.98 31.34 -47 31 C-46.8125 29.1875 -46.8125 29.1875 -46 27 C-44.34634594 25.97862543 -42.67623498 24.98387706 -41 24 C-39.93407745 22.96183585 -38.89478391 21.89602041 -37.875 20.8125 C-30.93087903 13.74967611 -23.08347113 8.79206198 -14.1875 4.5625 C-13.47029785 4.22033447 -12.7530957 3.87816895 -12.01416016 3.52563477 C-8.01324356 1.69479371 -4.42017086 0.49267211 0 0 Z " fill="#EFAA76" transform="translate(97,205)"/>
<path d="M0 0 C1.2957903 3.88737089 0.26890698 6.57724533 -0.8125 10.375 C-0.99103516 11.035 -1.16957031 11.695 -1.35351562 12.375 C-2.35881421 16.01875371 -3.51675254 19.52342904 -5 23 C-9.69350812 21.75760079 -11.77517676 19.22992078 -14.66796875 15.55859375 C-15.93649295 13.86950777 -15.93649295 13.86950777 -18 13 C-16.80454837 9.41364511 -16.17816353 9.28146266 -12.9375 7.625 C-8.48660502 5.27829416 -4.23591787 2.71237248 0 0 Z " fill="#CF4747" transform="translate(88,238)"/>
<path d="M0 0 C6.45884165 0.99276951 12.08312295 2.22269036 18 5 C20.12119128 5.95231597 20.12119128 5.95231597 22 6 C23.77190909 4.64555699 23.77190909 4.64555699 25 3 C27.91227269 6.28804981 29.49701212 8.59885603 30 13 C29.01 13.495 29.01 13.495 28 14 C28 13.34 28 12.68 28 12 C26.8553125 12.061875 26.8553125 12.061875 25.6875 12.125 C23 12 23 12 20 10 C16.31320631 7.52546241 16.31320631 7.52546241 12 7 C10.14404895 10.46444197 8.66699353 13.2873953 9.4375 17.25 C9.7159375 18.11625 9.7159375 18.11625 10 19 C6.28736916 15.83738854 4.29552268 12.17202588 2.05078125 7.92578125 C1.14564631 6.05163632 1.14564631 6.05163632 0 5 C-0.04063832 3.33382885 -0.042721 1.66611905 0 0 Z " fill="#DFAE5B" transform="translate(85,153)"/>
<path d="M0 0 C2 3 2 3 1.97265625 5.51171875 C1 8 1 8 -1.44140625 9.58203125 C-7.57459198 11.99999559 -12.39372816 13.63521845 -19 13 C-18.91802415 10.21282111 -18.43764605 8.48247233 -16.55078125 6.40234375 C-11.43764427 1.88814256 -7.05411519 -0.78379058 0 0 Z " fill="#E78364" transform="translate(89,185)"/>
<path d="M0 0 C-0.66 0.66 -1.32 1.32 -2 2 C-2.99 2 -3.98 2 -5 2 C-3.35 2.33 -1.7 2.66 0 3 C0 4.65 0 6.3 0 8 C2.97 8.495 2.97 8.495 6 9 C6 9.33 6 9.66 6 10 C-1.59 10.33 -9.18 10.66 -17 11 C-17.33 10.01 -17.66 9.02 -18 8 C-16.68 8 -15.36 8 -14 8 C-14.66868314 4.88667752 -14.66868314 4.88667752 -17.0625 3.8125 C-17.701875 3.544375 -18.34125 3.27625 -19 3 C-18.67 2.34 -18.34 1.68 -18 1 C-12.18248883 -0.3764647 -5.93568524 -0.09421723 0 0 Z " fill="#E7E8E8" transform="translate(326,428)"/>
<path d="M0 0 C2.20826378 -0.02722517 4.41662638 -0.04649729 6.625 -0.0625 C7.85476562 -0.07410156 9.08453125 -0.08570313 10.3515625 -0.09765625 C13.67723791 -0.00863924 16.74047588 0.36313913 20 1 C20 1.33 20 1.66 20 2 C18.35 2.33 16.7 2.66 15 3 C18.465 2.505 18.465 2.505 22 2 C21.67 3.65 21.34 5.3 21 7 C17.5275795 7.86810513 15.41868609 7.88224157 12 7 C11.09701172 7.23009766 11.09701172 7.23009766 10.17578125 7.46484375 C7.78596421 8.05264435 5.70662388 8.09862682 3.25 8.0625 C2.45078125 8.05347656 1.6515625 8.04445313 0.828125 8.03515625 C0.22484375 8.02355469 -0.3784375 8.01195312 -1 8 C-1.66 6.02 -2.32 4.04 -3 2 C3.75 1.875 3.75 1.875 6 3 C6 2.34 6 1.68 6 1 C4.02 1 2.04 1 0 1 C0 0.67 0 0.34 0 0 Z " fill="#F0F0F0" transform="translate(226,427)"/>
<path d="M0 0 C2.31 0.33 4.62 0.66 7 1 C6.34 1.66 5.68 2.32 5 3 C5.99 3.66 6.98 4.32 8 5 C8 6.32 8 7.64 8 9 C8.99 8.67 9.98 8.34 11 8 C11.33 9.32 11.66 10.64 12 12 C2.72605107 11.41117785 -6.0146265 9.24113144 -15 7 C-13.68 6.34 -12.36 5.68 -11 5 C-11 5.66 -11 6.32 -11 7 C-10.2575 6.649375 -9.515 6.29875 -8.75 5.9375 C-5.8677274 4.95490707 -4.78823655 4.9673198 -2 6 C-1.34 4.02 -0.68 2.04 0 0 Z " fill="#E5E6E5" transform="translate(175,418)"/>
<path d="M0 0 C1.5 1.3125 1.5 1.3125 3 3 C3 3.99 3 4.98 3 6 C-0.33333333 6.66666667 -3.66666667 7.33333333 -7 8 C-7.86678213 15.35265589 -7.86678213 15.35265589 -5.6640625 22.1328125 C-3.86118132 23.95354075 -3.86118132 23.95354075 -1 26 C-0.01 25.01 0.98 24.02 2 23 C1.125 27.75 1.125 27.75 0 30 C-0.66 30 -1.32 30 -2 30 C-3.3671875 28.42578125 -3.3671875 28.42578125 -4.875 26.3125 C-6.61916557 23.88602027 -8.33320661 21.62176547 -10.3125 19.375 C-12.30467898 16.57119255 -12.68450509 14.39157025 -13 11 C-12.01 11 -11.02 11 -10 11 C-10 10.34 -10 9.68 -10 9 C-9.34 9 -8.68 9 -8 9 C-8 7.68 -8 6.36 -8 5 C-7.13375 4.87625 -7.13375 4.87625 -6.25 4.75 C-3.3840696 3.79468987 -2.0009236 2.21530827 0 0 Z " fill="#D39C4E" transform="translate(122,122)"/>
<path d="M0 0 C0.99 0.33 1.98 0.66 3 1 C2.96519531 1.96099609 2.96519531 1.96099609 2.9296875 2.94140625 C2.84183252 7.15217012 2.84517617 10.50972455 4.125 14.5625 C5.29995484 19.17839401 4.28620898 22.51071574 3 27 C2.66289087 28.3323837 2.32836916 29.66543543 2 31 C-1.66606201 20.85286407 -4.60565413 10.36272179 0 0 Z " fill="#DEE0E1" transform="translate(135,290)"/>
<path d="M0 0 C0.66 0.33 1.32 0.66 2 1 C2 6.28 2 11.56 2 17 C0.02 17.66 -1.96 18.32 -4 19 C-4.33 19.99 -4.66 20.98 -5 22 C-5.99 21.67 -6.98 21.34 -8 21 C-8 16.38 -8 11.76 -8 7 C-7.34 8.32 -6.68 9.64 -6 11 C-3.40743101 10.06454002 -3.40743101 10.06454002 -1 8 C-0.23618519 5.27285838 -0.14057352 2.85832822 0 0 Z " fill="#DADBDB" transform="translate(453,242)"/>
<path d="M0 0 C1.1173418 3.35202541 0.88817257 4.15582032 -0.109375 7.421875 C-0.36976562 8.28296875 -0.63015625 9.1440625 -0.8984375 10.03125 C-1.17945312 10.9284375 -1.46046875 11.825625 -1.75 12.75 C-2.01554687 13.63171875 -2.28109375 14.5134375 -2.5546875 15.421875 C-3.73703366 19.27884888 -4.95792253 23.04977404 -6.59765625 26.73828125 C-7.98172992 29.95750553 -8.8839143 33.03182725 -9.6875 36.4375 C-9.93886719 37.48808594 -10.19023438 38.53867187 -10.44921875 39.62109375 C-10.63097656 40.40613281 -10.81273438 41.19117188 -11 42 C-11.33 42 -11.66 42 -12 42 C-11.46500441 33.46731063 -10.01409384 25.28181579 -8.1875 16.9375 C-7.93935547 15.71611328 -7.69121094 14.49472656 -7.43554688 13.23632812 C-7.18224609 12.07423828 -6.92894531 10.91214844 -6.66796875 9.71484375 C-6.44391357 8.66417725 -6.2198584 7.61351074 -5.98901367 6.53100586 C-5 4 -5 4 -2.95825195 2.76782227 C-2.31202881 2.51444092 -1.66580566 2.26105957 -1 2 C-0.67 1.34 -0.34 0.68 0 0 Z " fill="#6E747D" transform="translate(111,236)"/>
<path d="M0 0 C-1 3 -1 3 -3.22265625 4.39453125 C-4.15980469 4.86246094 -5.09695312 5.33039062 -6.0625 5.8125 C-11.11954426 8.4466523 -15.57121899 11.42144343 -20 15 C-20.66 14.67 -21.32 14.34 -22 14 C-16.65209254 5.83633824 -10.26295966 -0.27737729 0 0 Z " fill="#696D76" transform="translate(234,53)"/>
<path d="M0 0 C0.66 0.99 1.32 1.98 2 3 C1.67 3.61875 1.34 4.2375 1 4.875 C-0.14193235 6.91018344 -0.14193235 6.91018344 0 9 C-2.64 9 -5.28 9 -8 9 C-8.33 7.35 -8.66 5.7 -9 4 C-10.65 3.67 -12.3 3.34 -14 3 C-13.67 2.34 -13.34 1.68 -13 1 C-8.70063199 -0.30283879 -4.4442466 -0.29142601 0 0 Z " fill="#EFF0F0" transform="translate(334,428)"/>
<path d="M0 0 C-0.60147674 3.58385789 -0.9046183 3.926582 -4.01953125 6.32421875 C-5.27607916 7.12432265 -6.54080259 7.91170067 -7.8125 8.6875 C-8.75706055 9.29174805 -8.75706055 9.29174805 -9.72070312 9.90820312 C-12.78396051 11.8271587 -15.47226628 13.25029029 -19 14 C-18.73797271 10.85567254 -18.30653932 9.32697528 -16.125 7 C-5.1875 0 -5.1875 0 0 0 Z " fill="#EBA26C" transform="translate(89,235)"/>
<path d="M0 0 C3.3 0 6.6 0 10 0 C10 1.98 10 3.96 10 6 C7.39048764 7.30475618 5.47298715 7.11301572 2.5546875 7.09765625 C0.94013672 7.09282227 0.94013672 7.09282227 -0.70703125 7.08789062 C-1.83496094 7.07951172 -2.96289062 7.07113281 -4.125 7.0625 C-5.26066406 7.05798828 -6.39632813 7.05347656 -7.56640625 7.04882812 C-10.37765638 7.03701615 -13.1888023 7.02054507 -16 7 C-16 6.67 -16 6.34 -16 6 C-11.05 5.67 -6.1 5.34 -1 5 C-0.67 3.35 -0.34 1.7 0 0 Z " fill="#DFE0E0" transform="translate(274,432)"/>
<path d="M0 0 C5.96652354 1.57013777 10.82909025 4.75029782 16 8 C15.67 8.66 15.34 9.32 15 10 C13.68 9.34 12.36 8.68 11 8 C10.22197813 10.3015411 10.22197813 10.3015411 10 13 C10.98028616 14.34789347 11.97971135 15.68212715 13 17 C12.59375 19.12109375 12.59375 19.12109375 12 21 C10.55969281 18.62666362 9.12269913 16.25142274 7.6875 13.875 C7.28337891 13.20984375 6.87925781 12.5446875 6.46289062 11.859375 C4.12543592 7.98262085 1.96548039 4.08361945 0 0 Z " fill="#E6D380" transform="translate(86,99)"/>
<path d="M0 0 C0.66 0.33 1.32 0.66 2 1 C2.82804069 3.48412207 3 5.35220307 3 8 C3.3062434 9.33981486 3.63451555 10.67511887 4 12 C2.02 12.99 2.02 12.99 0 14 C0.0825 14.7425 0.165 15.485 0.25 16.25 C-0.07253543 19.79788974 -1.42720112 20.66840101 -4 23 C-4 23.66 -4 24.32 -4 25 C-4.66 25 -5.32 25 -6 25 C-4.48565898 16.53164559 -2.27628663 8.28745132 0 0 Z " fill="#E6E7E8" transform="translate(183,186)"/>
<path d="M0 0 C2.31 0.66 4.62 1.32 7 2 C6.01 3.485 6.01 3.485 5 5 C5.30840599 7.15274948 5.30840599 7.15274948 6 9 C1.82978388 11.03164375 -0.59405938 11.07903196 -4.875 9.625 C-6.25667772 9.10060086 -7.63422399 8.56452075 -9 8 C-6.4345406 5.4345406 -4.52313332 5.45953913 -1 5 C-1 4.01 -1 3.02 -1 2 C-0.67 1.34 -0.34 0.68 0 0 Z " fill="#E4E5E4" transform="translate(146,410)"/>
<path d="M0 0 C0.66 0.66 1.32 1.32 2 2 C2.99 2 3.98 2 5 2 C4.62831834 4.68888448 4.25739465 5.77311549 2.1875 7.59765625 C1.465625 8.08105469 0.74375 8.56445312 0 9.0625 C-3.40228435 11.2819797 -3.40228435 11.2819797 -5 15 C-8.0625 16.6875 -8.0625 16.6875 -11 18 C-9.32378487 14.53023468 -7.43261041 11.20793406 -5.5 7.875 C-4.8915625 6.82054688 -4.283125 5.76609375 -3.65625 4.6796875 C-2 2 -2 2 0 0 Z " fill="#62676F" transform="translate(160,119)"/>
<path d="M0 0 C3.43196745 1.14398915 4.04748538 2.02494226 6.125 4.875 C6.64320313 5.57367188 7.16140625 6.27234375 7.6953125 6.9921875 C9 9 9 9 10 12 C2 12 2 12 -1 11 C-0.67 7.37 -0.34 3.74 0 0 Z " fill="#E5E6E5" transform="translate(445,284)"/>
<path d="M0 0 C0.33 0.66 0.66 1.32 1 2 C-1.97 1.505 -1.97 1.505 -5 1 C-4.67 2.98 -4.34 4.96 -4 7 C-8.455 8.485 -8.455 8.485 -13 10 C-13 9.01 -13 8.02 -13 7 C-13.66 7 -14.32 7 -15 7 C-13.9497036 3.61571159 -12.94675369 2.97132891 -9.75 1.25 C-6.19465028 0.06488343 -3.70317814 -0.27096425 0 0 Z " fill="#ED9170" transform="translate(88,186)"/>
<path d="M0 0 C2.91227269 3.28804981 4.49701212 5.59885603 5 10 C4.01 10.495 4.01 10.495 3 11 C3 10.34 3 9.68 3 9 C2.236875 9.04125 1.47375 9.0825 0.6875 9.125 C-2 9 -2 9 -5 7 C-6.299375 6.2575 -6.299375 6.2575 -7.625 5.5 C-10 4 -10 4 -11 2 C-9.741875 2.226875 -8.48375 2.45375 -7.1875 2.6875 C-3.85861291 3.20193197 -3.85861291 3.20193197 -1 1.5625 C-0.67 1.046875 -0.34 0.53125 0 0 Z " fill="#DAA452" transform="translate(110,156)"/>
<path d="M0 0 C0.69416016 -0.00386719 1.38832031 -0.00773437 2.10351562 -0.01171875 C5.84083371 -0.00462033 9.30460894 0.23271097 12.9375 1.125 C12.9375 1.455 12.9375 1.785 12.9375 2.125 C11.71933594 2.17398438 10.50117188 2.22296875 9.24609375 2.2734375 C7.62237563 2.34852273 5.99867874 2.42406802 4.375 2.5 C3.17520508 2.54640625 3.17520508 2.54640625 1.95117188 2.59375 C-3.0476736 2.83859141 -7.28891481 3.64518859 -12.0625 5.125 C-15.5 5.25 -15.5 5.25 -18.0625 5.125 C-18.0625 4.465 -18.0625 3.805 -18.0625 3.125 C-12.431769 -0.12349865 -6.34617451 -0.0355528 0 0 Z " fill="#6B6F78" transform="translate(253.0625,48.875)"/>
<path d="M0 0 C3.26460973 1.80412643 4.88929795 2.83394693 7 6 C6.01 6.33 5.02 6.66 4 7 C1.3125 5.5625 1.3125 5.5625 -1 4 C-0.67 5.32 -0.34 6.64 0 8 C-1.98 8.99 -1.98 8.99 -4 10 C-5.5 8.8125 -5.5 8.8125 -7 7 C-7.1875 4.3125 -7.1875 4.3125 -7 2 C-6.030625 1.855625 -5.06125 1.71125 -4.0625 1.5625 C-1.13513227 1.32437659 -1.13513227 1.32437659 0 0 Z " fill="#E9E9EA" transform="translate(455,258)"/>
<path d="M0 0 C3.125 0.375 3.125 0.375 6 1 C6 2.98 6 4.96 6 7 C6.66 7.33 7.32 7.66 8 8 C7.34 8 6.68 8 6 8 C6 8.66 6 9.32 6 10 C-0.75 8.25 -0.75 8.25 -3 6 C-2.63318342 3.06546739 -2.13562754 2.13562754 0 0 Z " fill="#F2F2F2" transform="translate(395,107)"/>
<path d="M0 0 C0.92515915 0.00141495 1.8503183 0.0028299 2.80351257 0.00428772 C5.74794802 0.0098691 8.69230642 0.0224182 11.63671875 0.03515625 C13.63736869 0.04017366 15.63801983 0.04473614 17.63867188 0.04882812 C22.53388369 0.05983244 27.42903817 0.07708427 32.32421875 0.09765625 C32.32421875 0.42765625 32.32421875 0.75765625 32.32421875 1.09765625 C14.99921875 1.59265625 14.99921875 1.59265625 -2.67578125 2.09765625 C-2.67578125 2.42765625 -2.67578125 2.75765625 -2.67578125 3.09765625 C-6.30578125 3.09765625 -9.93578125 3.09765625 -13.67578125 3.09765625 C-14.00578125 2.43765625 -14.33578125 1.77765625 -14.67578125 1.09765625 C-9.79861823 -0.17330868 -5.00007469 -0.02890249 0 0 Z " fill="#C2C2C2" transform="translate(273.67578125,428.90234375)"/>
<path d="M0 0 C0.33 1.32 0.66 2.64 1 4 C-0.9151579 4.81604999 -2.83218834 5.62770632 -4.75 6.4375 C-5.81734375 6.88996094 -6.8846875 7.34242188 -7.984375 7.80859375 C-12.86024096 9.73493976 -12.86024096 9.73493976 -15 10 C-15.66 9.34 -16.32 8.68 -17 8 C-14.03 6.68 -11.06 5.36 -8 4 C-8 3.34 -8 2.68 -8 2 C-5.36 1.34 -2.72 0.68 0 0 Z " fill="#EBA06C" transform="translate(97,205)"/>
<path d="M0 0 C2.31 0 4.62 0 7 0 C7.33 1.32 7.66 2.64 8 4 C7.34 4 6.68 4 6 4 C5.34 5.65 4.68 7.3 4 9 C-1.75 7.25 -1.75 7.25 -4 5 C-3.01 4.34 -2.02 3.68 -1 3 C-0.67 2.01 -0.34 1.02 0 0 Z " fill="#F0F0F0" transform="translate(285,29)"/>
<path d="M0 0 C0.66 0.66 1.32 1.32 2 2 C3.98821313 2.39764263 5.98944339 2.73775349 8 3 C8.33 2.34 8.66 1.68 9 1 C10.32 1.33 11.64 1.66 13 2 C12.814375 2.61875 12.62875 3.2375 12.4375 3.875 C11.76313824 6.04160178 11.76313824 6.04160178 13 8 C10.03 8 7.06 8 4 8 C3.67 7.34 3.34 6.68 3 6 C2.01 5.67 1.02 5.34 0 5 C0 3.35 0 1.7 0 0 Z " fill="#F2F2F3" transform="translate(51,109)"/>
<path d="M0 0 C3.53586014 3.17320782 5.58578031 5.16743695 6 10 C4.35 10.33 2.7 10.66 1 11 C1 11.99 1 12.98 1 14 C-0.32 13.34 -1.64 12.68 -3 12 C-2.690625 11.13375 -2.38125 10.2675 -2.0625 9.375 C-1.07508101 6.23849262 -0.46418941 3.24932587 0 0 Z " fill="#E7E7E7" transform="translate(467,269)"/>
<path d="M0 0 C1.51553092 3.97450493 0.49888623 7.20481149 -0.4375 11.25 C-0.72496094 12.51328125 -1.01242187 13.7765625 -1.30859375 15.078125 C-1.53675781 16.04234375 -1.76492188 17.0065625 -2 18 C-2.33 18 -2.66 18 -3 18 C-3.66 12.39 -4.32 6.78 -5 1 C-3 0 -3 0 0 0 Z " fill="#E3E4E4" transform="translate(428,281)"/>
<path d="M0 0 C1.2065625 0.0309375 1.2065625 0.0309375 2.4375 0.0625 C2.7675 1.0525 3.0975 2.0425 3.4375 3.0625 C5.45258358 3.79573796 5.45258358 3.79573796 7.4375 4.0625 C7.1075 6.0425 6.7775 8.0225 6.4375 10.0625 C5.7775 10.0625 5.1175 10.0625 4.4375 10.0625 C3.7775 9.0725 3.1175 8.0825 2.4375 7.0625 C1.7775 7.0625 1.1175 7.0625 0.4375 7.0625 C0.4375 5.7425 0.4375 4.4225 0.4375 3.0625 C-0.8825 2.4025 -2.2025 1.7425 -3.5625 1.0625 C-2.5625 0.0625 -2.5625 0.0625 0 0 Z " fill="#F0F0F0" transform="translate(182.5625,419.9375)"/>
<path d="M0 0 C0.99 0 1.98 0 3 0 C3.05380578 2.79192205 3.09357669 5.5828141 3.125 8.375 C3.15013672 9.56609375 3.15013672 9.56609375 3.17578125 10.78125 C3.19335473 12.85492015 3.10335168 14.92883241 3 17 C2.34 17.66 1.68 18.32 1 19 C-1 17 -1 17 -1.23046875 14.86328125 C-1.14543039 9.81509489 -0.86552185 4.97675065 0 0 Z " fill="#E2E2E2" transform="translate(173,230)"/>
<path d="M0 0 C0.99 0.33 1.98 0.66 3 1 C3.94921875 3.50390625 3.94921875 3.50390625 4.6875 6.5625 C4.93886719 7.57441406 5.19023438 8.58632812 5.44921875 9.62890625 C5.63097656 10.41136719 5.81273438 11.19382813 6 12 C4.35 13.32 2.7 14.64 1 16 C-0.50156874 12.99686252 -0.09281204 10.20932478 -0.0625 6.875 C-0.05347656 5.59367188 -0.04445313 4.31234375 -0.03515625 2.9921875 C-0.02355469 2.00476563 -0.01195313 1.01734375 0 0 Z " fill="#CB5F4C" transform="translate(90,187)"/>
<path d="M0 0 C0.350625 0.474375 0.70125 0.94875 1.0625 1.4375 C3.81768657 3.65942465 6.54981423 3.5527537 10 4 C10.33 4.66 10.66 5.32 11 6 C-1.64228779 6.20067123 -1.64228779 6.20067123 -7 5 C-7.66 4.34 -8.32 3.68 -9 3 C-5.92382812 2.70703125 -5.92382812 2.70703125 -2.84765625 2.4140625 C-2.23792969 2.27742188 -1.62820312 2.14078125 -1 2 C-0.67 1.34 -0.34 0.68 0 0 Z " fill="#CCCCCD" transform="translate(238,432)"/>
<path d="M0 0 C5.61 0 11.22 0 17 0 C17 0.99 17 1.98 17 3 C11.39 3 5.78 3 0 3 C0 2.01 0 1.02 0 0 Z " fill="#D8D8D8" transform="translate(314,256)"/>
<path d="M0 0 C0.99 0 1.98 0 3 0 C3.53394179 1.4117783 4.05165104 2.82970244 4.5625 4.25 C4.85253906 5.03890625 5.14257812 5.8278125 5.44140625 6.640625 C6.04522837 9.19103452 5.8473932 10.55322229 5 13 C3.68 12.67 2.36 12.34 1 12 C0.45533613 7.915021 0 4.1274515 0 0 Z " fill="#E5E5E5" transform="translate(411,180)"/>
<path d="M0 0 C0 0.99 0 1.98 0 3 C-3.33333333 6 -3.33333333 6 -6 6 C-6.28875 6.639375 -6.5775 7.27875 -6.875 7.9375 C-8 10 -8 10 -10 11 C-9.39130435 5.52173913 -9.39130435 5.52173913 -7.6875 3.25 C-5.21744002 1.42032594 -3.12675993 0 0 0 Z " fill="#E3E3E4" transform="translate(451,345)"/>
<path d="M0 0 C1.98 0.99 3.96 1.98 6 3 C6 5 6 5 4 7.125 C3.34 7.74375 2.68 8.3625 2 9 C1.01 8.67 0.02 8.34 -1 8 C-1.625 5.125 -1.625 5.125 -2 2 C-1.34 1.34 -0.68 0.68 0 0 Z " fill="#EECB73" transform="translate(97,106)"/>
<path d="M0 0 C0.95465783 2.16967689 1.14401212 3.56328793 0.3984375 5.82421875 C-0.35870385 7.5684743 -1.17609198 9.28627131 -2 11 C-4.4375 10.3125 -4.4375 10.3125 -7 9 C-7.8125 6.375 -7.8125 6.375 -8 4 C-6.02 4.66 -4.04 5.32 -2 6 C-1.855625 5.195625 -1.71125 4.39125 -1.5625 3.5625 C-1 1 -1 1 0 0 Z " fill="#B64343" transform="translate(85,250)"/>
<path d="M0 0 C0.99 0.33 1.98 0.66 3 1 C3 1.99 3 2.98 3 4 C5.64 3.67 8.28 3.34 11 3 C8.73437327 5.26562673 7.15839295 5.94462749 3.95703125 6.09765625 C3.24933594 6.08605469 2.54164062 6.07445312 1.8125 6.0625 C-0.0746875 6.0315625 -0.0746875 6.0315625 -2 6 C-1.125 1.125 -1.125 1.125 0 0 Z " fill="#E77661" transform="translate(72,192)"/>
<path d="M0 0 C0 0.66 0 1.32 0 2 C-0.99 2 -1.98 2 -3 2 C-3 2.99 -3 3.98 -3 5 C-4.98 5 -6.96 5 -9 5 C-9.33 3.68 -9.66 2.36 -10 1 C-6.78548731 -0.60725635 -3.56387464 -0.05748185 0 0 Z " fill="#D8D8D8" transform="translate(62,107)"/>
<path d="M0 0 C-1 3 -1 3 -2.5625 4.1875 C-6.11122383 5.37040794 -9.26701621 5.12443279 -13 5 C-10.74037349 0.48074698 -4.66953512 -0.42450319 0 0 Z " fill="#5F646B" transform="translate(234,53)"/>
<path d="M0 0 C0.99 0.33 1.98 0.66 3 1 C3.12375 1.5775 3.2475 2.155 3.375 2.75 C4.29697411 6.06910681 6.51797119 7.70889648 9 10 C9.99 9.01 10.98 8.02 12 7 C11.125 11.75 11.125 11.75 10 14 C9.34 14 8.68 14 8 14 C6.5625 12.3203125 6.5625 12.3203125 5 10.125 C3.40643543 7.90197743 1.93765275 5.93765275 0 4 C0 2.68 0 1.36 0 0 Z " fill="#D39748" transform="translate(112,138)"/>
<path d="M0 0 C0.99 0 1.98 0 3 0 C3.99 3.96 4.98 7.92 6 12 C5.01 12 4.02 12 3 12 C0.97649676 8.96474514 0.67875982 7.80573798 0.375 4.3125 C0.30023438 3.50425781 0.22546875 2.69601562 0.1484375 1.86328125 C0.09945312 1.24839844 0.05046875 0.63351562 0 0 Z " fill="#DCDDDC" transform="translate(75,348)"/>
<path d="M0 0 C0.33 0 0.66 0 1 0 C1.06058594 0.75925781 1.12117188 1.51851563 1.18359375 2.30078125 C1.26738281 3.29464844 1.35117188 4.28851563 1.4375 5.3125 C1.51871094 6.29863281 1.59992188 7.28476562 1.68359375 8.30078125 C1.91812559 11.09375599 1.91812559 11.09375599 3 14 C2.71325582 16.00720923 2.36920191 18.00630969 2 20 C1.63278721 22.99645638 1.31359466 25.99749792 1 29 C0.67 29 0.34 29 0 29 C0 19.43 0 9.86 0 0 Z " fill="#CDCDCB" transform="translate(65,305)"/>
<path d="M0 0 C1.65 0.33 3.3 0.66 5 1 C4.814375 2.0725 4.62875 3.145 4.4375 4.25 C4.0695432 7.40391546 3.95534657 9.09818492 5 12 C1.94150832 9.24735748 0.12608621 6.99248748 -1 3 C-0.67 2.01 -0.34 1.02 0 0 Z " fill="#D89E4F" transform="translate(90,160)"/>
<path d="M0 0 C6.63203463 4.06926407 6.63203463 4.06926407 8.0625 7.6875 C8 10 8 10 6 12 C3.875 12.625 3.875 12.625 2 13 C2.33 12.01 2.66 11.02 3 10 C3.33343551 7.45792029 3.33343551 7.45792029 3 5 C2.01 4.34 1.02 3.68 0 3 C0 2.01 0 1.02 0 0 Z " fill="#E1B45D" transform="translate(102,147)"/>
<path d="M0 0 C0.66 0.33 1.32 0.66 2 1 C1.33333333 2.33333333 0.66666667 3.66666667 0 5 C-0.2475 5.680625 -0.495 6.36125 -0.75 7.0625 C-2.56812186 9.88058888 -4.9868561 10.68993743 -8 12 C-2.94736842 1.47368421 -2.94736842 1.47368421 0 0 Z " fill="#5C6168" transform="translate(157,125)"/>
<path d="M0 0 C0.33 1.32 0.66 2.64 1 4 C0.01 4.495 0.01 4.495 -1 5 C-1 5.66 -1 6.32 -1 7 C-1.66 7 -2.32 7 -3 7 C-3 7.66 -3 8.32 -3 9 C-3.66 9 -4.32 9 -5 9 C-5.66 6.36 -6.32 3.72 -7 1 C-4.03 1.495 -4.03 1.495 -1 2 C-0.67 1.34 -0.34 0.68 0 0 Z " fill="#E9E9EA" transform="translate(427,270)"/>
<path d="M0 0 C0.66 0.33 1.32 0.66 2 1 C1.67 1.66 1.34 2.32 1 3 C1 4.32 1 5.64 1 7 C-4.75 6.25 -4.75 6.25 -7 4 C-1.7265625 0.77734375 -1.7265625 0.77734375 0 0 Z " fill="#D95E56" transform="translate(58,233)"/>
<path d="M0 0 C0.66 0.66 1.32 1.32 2 2 C1.3125 4.4375 1.3125 4.4375 0 7 C-2.375 7.625 -2.375 7.625 -5 8 C-7.26454073 9.46771271 -7.26454073 9.46771271 -9 11 C-7.59155282 7.78475695 -5.89655214 5.67816132 -3.375 3.25 C-2.74335938 2.63640625 -2.11171875 2.0228125 -1.4609375 1.390625 C-0.73777344 0.70226562 -0.73777344 0.70226562 0 0 Z " fill="#E6E7E8" transform="translate(218,128)"/>
<path d="M0 0 C2.97 0.99 5.94 1.98 9 3 C9 3.99 9 4.98 9 6 C8.01 6 7.02 6 6 6 C6.33 7.32 6.66 8.64 7 10 C3.66442368 7.0094833 1.84916079 4.06815373 0 0 Z " fill="#E1B45E" transform="translate(103,127)"/>
<path d="M0 0 C1.32 0 2.64 0 4 0 C4 0.66 4 1.32 4 2 C10.93 2 17.86 2 25 2 C25 2.33 25 2.66 25 3 C21.04172765 3.05785647 17.0835633 3.09354717 13.125 3.125 C11.99707031 3.14175781 10.86914062 3.15851563 9.70703125 3.17578125 C8.09248047 3.18544922 8.09248047 3.18544922 6.4453125 3.1953125 C4.95281982 3.21102295 4.95281982 3.21102295 3.43017578 3.22705078 C1 3 1 3 -1 1 C-0.67 0.67 -0.34 0.34 0 0 Z " fill="#B4B4B5" transform="translate(271,257)"/>
<path d="M0 0 C0.66 0.33 1.32 0.66 2 1 C2 1.99 2 2.98 2 4 C1.01 4.33 0.02 4.66 -1 5 C-1.73323796 7.01508358 -1.73323796 7.01508358 -2 9 C-2.99 8.67 -3.98 8.34 -5 8 C-5.66 8 -6.32 8 -7 8 C-7.99 8 -8.98 8 -10 8 C-6.7 5.36 -3.4 2.72 0 0 Z " fill="#5A5E65" transform="translate(215,60)"/>
<path d="M0 0 C5.75 0.75 5.75 0.75 8 3 C6.02 3 4.04 3 2 3 C1.67 3.99 1.34 4.98 1 6 C0.67 4.02 0.34 2.04 0 0 Z M-1.875 5.875 C-0.92625 5.91625 0.0225 5.9575 1 6 C-0.1875 7.5625 -0.1875 7.5625 -2 9 C-4.6875 8.6875 -4.6875 8.6875 -7 8 C-5 6 -5 6 -1.875 5.875 Z " fill="#DBDCDD" transform="translate(283,26)"/>
<path d="M0 0 C2.96404505 2.80804268 5.44499019 5.18315774 7 9 C5.68 9.33 4.36 9.66 3 10 C2.67 8.35 2.34 6.7 2 5 C1.34 5 0.68 5 0 5 C0 3.35 0 1.7 0 0 Z " fill="#E4E5E4" transform="translate(385,131)"/>
<path d="M0 0 C3.36165169 4.08200562 6.62658062 8.25316124 9 13 C8.01 13 7.02 13 6 13 C5.67 13.99 5.34 14.98 5 16 C4.80664062 15.39671875 4.61328125 14.7934375 4.4140625 14.171875 C4.15367187 13.37265625 3.89328125 12.5734375 3.625 11.75 C3.36976563 10.96109375 3.11453125 10.1721875 2.8515625 9.359375 C2.05887299 6.99751144 2.05887299 6.99751144 0.8984375 4.890625 C0 3 0 3 0 0 Z " fill="#303235" transform="translate(136,320)"/>
<path d="M0 0 C0.33 0 0.66 0 1 0 C3.04620371 5.57022121 2.95315262 8.24333964 1 14 C0.63049535 16.32787927 0.28647533 18.66045145 0 21 C-0.33 21 -0.66 21 -1 21 C-1.10808032 13.90272572 -0.93854006 7.03905044 0 0 Z " fill="#595E67" transform="translate(98,273)"/>
<path d="M0 0 C1 2 1 2 0.44140625 4.1640625 C0.15136719 4.97617188 -0.13867188 5.78828125 -0.4375 6.625 C-0.72496094 7.44226563 -1.01242188 8.25953125 -1.30859375 9.1015625 C-1.65083984 10.04128906 -1.65083984 10.04128906 -2 11 C-2.33 11 -2.66 11 -3 11 C-3 9.35 -3 7.7 -3 6 C-3.66 6 -4.32 6 -5 6 C-5.33 5.01 -5.66 4.02 -6 3 C-4.02 2.01 -2.04 1.02 0 0 Z " fill="#D26451" transform="translate(97,209)"/>
<path d="M0 0 C2.02350324 3.03525486 2.32124018 4.19426202 2.625 7.6875 C2.69976562 8.49574219 2.77453125 9.30398437 2.8515625 10.13671875 C2.90054687 10.75160156 2.94953125 11.36648437 3 12 C1.68 12 0.36 12 -1 12 C-1 10.02 -1 8.04 -1 6 C-0.34 6 0.32 6 1 6 C1 5.34 1 4.68 1 4 C0.34 3.67 -0.32 3.34 -1 3 C-0.67 2.01 -0.34 1.02 0 0 Z " fill="#D5D5D5" transform="translate(420,204)"/>
<path d="M0 0 C1.98 0 3.96 0 6 0 C6.33 1.32 6.66 2.64 7 4 C4 6 4 6 0 6 C0 4.68 0 3.36 0 2 C1.65 2 3.3 2 5 2 C3.35 1.67 1.7 1.34 0 1 C0 0.67 0 0.34 0 0 Z " fill="#CB8163" transform="translate(83,185)"/>
<path d="M0 0 C0.99 0.66 1.98 1.32 3 2 C1.125 6.75 1.125 6.75 0 9 C-0.99 9 -1.98 9 -3 9 C-2.44271087 5.65626525 -1.64826111 2.96687001 0 0 Z " fill="#DFDFE0" transform="translate(190,168)"/>
<path d="M0 0 C1.98 0.495 1.98 0.495 4 1 C4.45732667 6.71658336 3.52273754 9.48649253 0 14 C-0.33 13.34 -0.66 12.68 -1 12 C-0.34 11.01 0.32 10.02 1 9 C1.21314985 5.5896024 1.084894 3.25468201 0 0 Z " fill="#D49748" transform="translate(125,130)"/>
<path d="M0 0 C10.55808656 3.07517084 10.55808656 3.07517084 15 5 C10.99799622 6.60080151 7.95443764 5.29279692 4 4 C3.67 4.66 3.34 5.32 3 6 C2.01 4.02 1.02 2.04 0 0 Z " fill="#D8CC86" transform="translate(71,132)"/>
<path d="M0 0 C1.5625 1.25 1.5625 1.25 3 3 C2.6875 5.1875 2.6875 5.1875 2 7 C1.67 6.34 1.34 5.68 1 5 C-0.65 5 -2.3 5 -4 5 C-4.33 4.01 -4.66 3.02 -5 2 C-3.68 2 -2.36 2 -1 2 C-0.67 1.34 -0.34 0.68 0 0 Z " fill="#D49B4D" transform="translate(112,160)"/>
<path d="M0 0 C0.33 0.99 0.66 1.98 1 3 C1.99 3 2.98 3 4 3 C1.9413783 6.08793255 1.1446688 6.47838607 -2 8 C-2.33 8.66 -2.66 9.32 -3 10 C-3.66 9.67 -4.32 9.34 -5 9 C-3.35 6.03 -1.7 3.06 0 0 Z " fill="#E7E8E8" transform="translate(198,153)"/>
<path d="M0 0 C2.31 0 4.62 0 7 0 C7 0.33 7 0.66 7 1 C9.97 1.33 12.94 1.66 16 2 C16 2.33 16 2.66 16 3 C13.70839681 3.02692484 11.41670454 3.04636124 9.125 3.0625 C7.84882813 3.07410156 6.57265625 3.08570313 5.2578125 3.09765625 C2 3 2 3 0 2 C0 1.34 0 0.68 0 0 Z " fill="#CACBCA" transform="translate(316,435)"/>
<path d="M0 0 C2.97 1.65 5.94 3.3 9 5 C8.34 5.66 7.68 6.32 7 7 C5.02 6.34 3.04 5.68 1 5 C1 4.34 1 3.68 1 3 C0.34 3 -0.32 3 -1 3 C-0.67 2.01 -0.34 1.02 0 0 Z " fill="#E3E4E3" transform="translate(112,394)"/>
<path d="M0 0 C2.14699969 3.44175522 2.09856795 5.7720292 1.625 9.75 C1.51414063 10.73484375 1.40328125 11.7196875 1.2890625 12.734375 C1.19367188 13.48203125 1.09828125 14.2296875 1 15 C0.67 15 0.34 15 0 15 C-0.39143394 13.25360243 -0.76254287 11.50264082 -1.125 9.75 C-1.33382812 8.77546875 -1.54265625 7.8009375 -1.7578125 6.796875 C-2.0202996 3.76557234 -1.61988849 2.51982654 0 0 Z " fill="#ECEDEE" transform="translate(214,279)"/>
<path d="M0 0 C-0.94762236 3.27360452 -1.44525055 4.67284007 -4.4375 6.4375 C-5.283125 6.623125 -6.12875 6.80875 -7 7 C-7.99 6.34 -8.98 5.68 -10 5 C-8.71186658 4.16121545 -7.41936744 3.32913217 -6.125 2.5 C-5.40570313 2.0359375 -4.68640625 1.571875 -3.9453125 1.09375 C-2 0 -2 0 0 0 Z " fill="#E87060" transform="translate(83,207)"/>
<path d="M0 0 C0.66 0.33 1.32 0.66 2 1 C1.61479436 3.53910197 1.29902057 4.72751123 -0.62890625 6.484375 C-1.26699219 6.90203125 -1.90507813 7.3196875 -2.5625 7.75 C-3.20316406 8.17796875 -3.84382813 8.6059375 -4.50390625 9.046875 C-5.24447266 9.51867187 -5.24447266 9.51867187 -6 10 C-4.79157144 5.56909529 -3.48331435 3.01887244 0 0 Z " fill="#D8D8D8" transform="translate(48,110)"/>
<path d="M0 0 C0.33 0.99 0.66 1.98 1 3 C-0.45792884 3.05399736 -1.91642712 3.09279177 -3.375 3.125 C-4.18710938 3.14820313 -4.99921875 3.17140625 -5.8359375 3.1953125 C-8 3 -8 3 -10 1 C-6.61981469 -0.04005702 -3.5219721 -0.08004482 0 0 Z " fill="#D4D4D4" transform="translate(244,21)"/>
<path d="M0 0 C0.08096803 1.45742463 0.13917774 2.91612807 0.1875 4.375 C0.22230469 5.18710937 0.25710938 5.99921875 0.29296875 6.8359375 C0.19628906 7.55007813 0.09960938 8.26421875 0 9 C-0.99 9.66 -1.98 10.32 -3 11 C-4.23666047 7.42742531 -3.89093449 4.64473199 -3 1 C-1 0 -1 0 0 0 Z " fill="#DADBDB" transform="translate(429,253)"/>
<path d="M0 0 C0.99 0.66 1.98 1.32 3 2 C-0.87564767 5.61139896 -0.87564767 5.61139896 -3 7 C-5.375 6.8125 -5.375 6.8125 -7 6 C-7 5.34 -7 4.68 -7 4 C-4.69 2.68 -2.38 1.36 0 0 Z " fill="#DA4D4B" transform="translate(78,244)"/>
<path d="M0 0 C1.65 0 3.3 0 5 0 C5 0.99 5 1.98 5 3 C6.65 3.33 8.3 3.66 10 4 C9.01 4.66 8.02 5.32 7 6 C4.0625 4.6875 4.0625 4.6875 1 3 C0.67 2.01 0.34 1.02 0 0 Z " fill="#E9E9E9" transform="translate(302,200)"/>
<path d="M0 0 C1.32 0.66 2.64 1.32 4 2 C3.34 3.32 2.68 4.64 2 6 C0.68 6 -0.64 6 -2 6 C-1.125 1.125 -1.125 1.125 0 0 Z " fill="#DE5C4B" transform="translate(94,199)"/>
<path d="M0 0 C1 3 1 3 -0.25 5.625 C-2 8 -2 8 -5 9 C-5.66 8.34 -6.32 7.68 -7 7 C-4.69 4.69 -2.38 2.38 0 0 Z " fill="#C45951" transform="translate(69,194)"/>
<path d="M0 0 C0.99 0 1.98 0 3 0 C2.34 2.31 1.68 4.62 1 7 C-0.32 7.33 -1.64 7.66 -3 8 C-1.125 2.25 -1.125 2.25 0 0 Z " fill="#E3E4E3" transform="translate(446,362)"/>
<path d="M0 0 C0.99 0.33 1.98 0.66 3 1 C3.33 4.3 3.66 7.6 4 11 C3.01 10.67 2.02 10.34 1 10 C0.67 6.7 0.34 3.4 0 0 Z " fill="#CDCDCE" transform="translate(171,243)"/>
<path d="M0 0 C2.33061852 3.49592778 2.70295038 5.84130536 3 10 C2.34 10.99 1.68 11.98 1 13 C0 12 0 12 -0.09765625 9.27734375 C-0.08605469 8.17519531 -0.07445312 7.07304687 -0.0625 5.9375 C-0.05347656 4.83277344 -0.04445313 3.72804687 -0.03515625 2.58984375 C-0.02355469 1.73519531 -0.01195312 0.88054687 0 0 Z " fill="#D1D2D2" transform="translate(443,187)"/>
<path d="M0 0 C0.99 0.66 1.98 1.32 3 2 C3 2.66 3 3.32 3 4 C-3.27 3.67 -9.54 3.34 -16 3 C-16 2.67 -16 2.34 -16 2 C-10.72 2 -5.44 2 0 2 C0 1.34 0 0.68 0 0 Z " fill="#37393E" transform="translate(311,75)"/>
<path d="M0 0 C3.25696479 0.41755959 4.63443291 0.63443291 7 3 C6.195625 3.12375 5.39125 3.2475 4.5625 3.375 C3.2940625 3.684375 3.2940625 3.684375 2 4 C1.67 4.66 1.34 5.32 1 6 C0.34 4.35 -0.32 2.7 -1 1 C-0.67 0.67 -0.34 0.34 0 0 Z " fill="#E4E5E5" transform="translate(329,60)"/>
<path d="M0 0 C0.33 0.66 0.66 1.32 1 2 C1.66 2 2.32 2 3 2 C2.01 4.97 1.02 7.94 0 11 C-0.99 10.67 -1.98 10.34 -3 10 C-2.01 6.7 -1.02 3.4 0 0 Z " fill="#E3E3E2" transform="translate(440,356)"/>
<path d="M0 0 C1.41687119 4.25061356 0.19320039 6.71851625 -1 11 C-1.33 11 -1.66 11 -2 11 C-2 9.02 -2 7.04 -2 5 C-2.99 5 -3.98 5 -5 5 C-5 4.34 -5 3.68 -5 3 C-2.5 1.375 -2.5 1.375 0 0 Z " fill="#B14540" transform="translate(88,238)"/>
<path d="M0 0 C0.66 0 1.32 0 2 0 C3.19126781 3.57380342 2.7349445 5.50883302 2.0625 9.1875 C1.86785156 10.27417969 1.67320313 11.36085938 1.47265625 12.48046875 C1.31667969 13.31191406 1.16070312 14.14335937 1 15 C0.67 15 0.34 15 0 15 C0 10.05 0 5.1 0 0 Z " fill="#44474E" transform="translate(94,324)"/>
<path d="M0 0 C0.99 0.33 1.98 0.66 3 1 C2.67 4.63 2.34 8.26 2 12 C-0.13586678 8.79619983 -0.23132175 7.98060033 -0.125 4.3125 C-0.10695312 3.50425781 -0.08890625 2.69601562 -0.0703125 1.86328125 C-0.04710937 1.24839844 -0.02390625 0.63351562 0 0 Z " fill="#E6E7E8" transform="translate(133,299)"/>
<path d="M0 0 C0.33 0.99 0.66 1.98 1 3 C2.32 2.67 3.64 2.34 5 2 C5.33 2.99 5.66 3.98 6 5 C5.67 5.66 5.34 6.32 5 7 C3 7 3 7 1.375 5.5 C0.92125 5.005 0.4675 4.51 0 4 C-0.33 4.66 -0.66 5.32 -1 6 C-0.67 4.02 -0.34 2.04 0 0 Z " fill="#5B6067" transform="translate(110,225)"/>
<path d="M0 0 C0.99 0.99 1.98 1.98 3 3 C1.68 4.65 0.36 6.3 -1 8 C-1.66 6.68 -2.32 5.36 -3 4 C-2.34 4 -1.68 4 -1 4 C-0.67 2.68 -0.34 1.36 0 0 Z " fill="#E5E6E6" transform="translate(334,189)"/>
<path d="M0 0 C0.33 0.66 0.66 1.32 1 2 C2.65 1.34 4.3 0.68 6 0 C6.99 0.99 7.98 1.98 9 3 C5.70303895 4.09898702 4.59505097 3.87124444 1.3125 3.0625 C0.10013672 2.77052734 0.10013672 2.77052734 -1.13671875 2.47265625 C-2.05904297 2.23869141 -2.05904297 2.23869141 -3 2 C-2.01 1.34 -1.02 0.68 0 0 Z " fill="#D6D6D5" transform="translate(163,423)"/>
<path d="M0 0 C0.99 0 1.98 0 3 0 C3.6875 2.3125 3.6875 2.3125 4 5 C2.5625 6.8125 2.5625 6.8125 1 8 C-0.35439668 5.29120665 -0.06501451 2.99066732 0 0 Z " fill="#EBECEB" transform="translate(381,165)"/>
<path d="M0 0 C1.67542976 0.28604898 3.34385343 0.61781233 5 1 C4.34 3.31 3.68 5.62 3 8 C1.45428722 5.68143083 0.20381448 3.49361571 -1 1 C-0.67 0.67 -0.34 0.34 0 0 Z " fill="#E7E7E7" transform="translate(270,160)"/>
<path d="M0 0 C0.98120464 3.05263664 0.98120464 4.94736336 0 8 C-0.66 7.67 -1.32 7.34 -2 7 C-2 7.66 -2 8.32 -2 9 C-2.66 9 -3.32 9 -4 9 C-2.94124926 5.59687262 -1.99097846 2.98646769 0 0 Z " fill="#595F66" transform="translate(145,143)"/>
<path d="M0 0 C0.99 0.33 1.98 0.66 3 1 C3.6875 3.0625 3.6875 3.0625 4 5 C3.34 5 2.68 5 2 5 C2 4.34 2 3.68 2 3 C1.34 3 0.68 3 0 3 C0 3.66 0 4.32 0 5 C-1.32 4.67 -2.64 4.34 -4 4 C-2.68 2.68 -1.36 1.36 0 0 Z " fill="#E3E4E4" transform="translate(223,123)"/>
<path d="M0 0 C0.33 0.99 0.66 1.98 1 3 C-0.65 4.32 -2.3 5.64 -4 7 C-4.66 6.01 -5.32 5.02 -6 4 C-4.02 2.68 -2.04 1.36 0 0 Z " fill="#E4E4E3" transform="translate(234,115)"/>
<path d="M0 0 C0.33 0 0.66 0 1 0 C0.67 3.3 0.34 6.6 0 10 C-0.66 8.68 -1.32 7.36 -2 6 C-2.99 6 -3.98 6 -5 6 C-3.35830472 3.97945196 -1.69088222 1.97956942 0 0 Z " fill="#3A3C41" transform="translate(409,361)"/>
<path d="M0 0 C0.66 0.33 1.32 0.66 2 1 C1.67 2.65 1.34 4.3 1 6 C0.01 6 -0.98 6 -2 6 C-3.6875 4 -3.6875 4 -5 2 C-2.625 0.9375 -2.625 0.9375 0 0 Z " fill="#E7E8E9" transform="translate(332,218)"/>
<path d="M0 0 C1.65 0.33 3.3 0.66 5 1 C4.01 2.175625 4.01 2.175625 3 3.375 C0.79798559 5.71512812 0.79798559 5.71512812 1 8 C0.34 8 -0.32 8 -1 8 C-0.67 5.36 -0.34 2.72 0 0 Z " fill="#D4D5D4" transform="translate(178,203)"/>
<path d="M0 0 C0.33 0 0.66 0 1 0 C1.33 3.3 1.66 6.6 2 10 C0.02 10.33 -1.96 10.66 -4 11 C-3.67 10.34 -3.34 9.68 -3 9 C-2.34 9 -1.68 9 -1 9 C-0.67 6.03 -0.34 3.06 0 0 Z " fill="#C1C2C2" transform="translate(351,165)"/>
<path d="M0 0 C2.475 0.99 2.475 0.99 5 2 C4.01 2.33 3.02 2.66 2 3 C2 3.66 2 4.32 2 5 C1.34 5 0.68 5 0 5 C-0.33 5.99 -0.66 6.98 -1 8 C-1.33 7.34 -1.66 6.68 -2 6 C-1.34 5.01 -0.68 4.02 0 3 C0 2.01 0 1.02 0 0 Z " fill="#DDDEDD" transform="translate(292,29)"/>
<path d="M0 0 C3.465 1.485 3.465 1.485 7 3 C6.67 3.66 6.34 4.32 6 5 C3.03 4.505 3.03 4.505 0 4 C0 2.68 0 1.36 0 0 Z " fill="#DEDFDF" transform="translate(294,216)"/>
<path d="M0 0 C1.65 0 3.3 0 5 0 C4.67 1.32 4.34 2.64 4 4 C2.68 4.33 1.36 4.66 0 5 C-0.33 4.01 -0.66 3.02 -1 2 C-0.67 1.34 -0.34 0.68 0 0 Z " fill="#DC5D53" transform="translate(52,216)"/>
<path d="M0 0 C0.66 0.33 1.32 0.66 2 1 C1.34 2.32 0.68 3.64 0 5 C-1.65 5 -3.3 5 -5 5 C-3.35 3.35 -1.7 1.7 0 0 Z " fill="#C36758" transform="translate(78,187)"/>
<path d="M0 0 C0.66 0 1.32 0 2 0 C0.125 6.75 0.125 6.75 -1 9 C-1.66 6.69 -2.32 4.38 -3 2 C-2.01 2 -1.02 2 0 2 C0 1.34 0 0.68 0 0 Z " fill="#DBA250" transform="translate(112,131)"/>
<path d="M0 0 C0.33 0.66 0.66 1.32 1 2 C1.66 2 2.32 2 3 2 C3 3.65 3 5.3 3 7 C2.01 7 1.02 7 0 7 C0 4.69 0 2.38 0 0 Z " fill="#E17669" transform="translate(48,229)"/>
<path d="M0 0 C0.66 0 1.32 0 2 0 C1.875 1.875 1.875 1.875 1 4 C-2.0625 5.25 -2.0625 5.25 -5 6 C-5 5.01 -5 4.02 -5 3 C-4.360625 2.87625 -3.72125 2.7525 -3.0625 2.625 C-2.0415625 2.315625 -2.0415625 2.315625 -1 2 C-0.67 1.34 -0.34 0.68 0 0 Z " fill="#DCA754" transform="translate(119,124)"/>
<path d="M0 0 C0.66 0.99 1.32 1.98 2 3 C0.7934375 3.4021875 0.7934375 3.4021875 -0.4375 3.8125 C-1.283125 4.204375 -2.12875 4.59625 -3 5 C-3.33 5.99 -3.66 6.98 -4 8 C-3.50168276 4.31245243 -2.89932357 2.39509338 0 0 Z " fill="#F1F2F2" transform="translate(46,116)"/>
<path d="M0 0 C1.32 1.32 2.64 2.64 4 4 C3.67 4.66 3.34 5.32 3 6 C2.01 6 1.02 6 0 6 C-0.38218767 4.34385343 -0.71395102 2.67542976 -1 1 C-0.67 0.67 -0.34 0.34 0 0 Z " fill="#E5E5E5" transform="translate(401,108)"/>
<path d="M0 0 C0 0.66 0 1.32 0 2 C-2.31 2 -4.62 2 -7 2 C-7.33 1.34 -7.66 0.68 -8 0 C-4.71303767 -0.79953138 -3.28976808 -1.09658936 0 0 Z " fill="#E2E2E2" transform="translate(371,422)"/>
<path d="M0 0 C2.64 0.33 5.28 0.66 8 1 C7.67 1.99 7.34 2.98 7 4 C4.03 3.505 4.03 3.505 1 3 C0.67 2.01 0.34 1.02 0 0 Z " fill="#D7D8D8" transform="translate(185,420)"/>
<path d="M0 0 C2.31 0.33 4.62 0.66 7 1 C3.375 4 3.375 4 0 4 C0 2.68 0 1.36 0 0 Z " fill="#E1E2E2" transform="translate(188,332)"/>
<path d="M0 0 C0.66 0.33 1.32 0.66 2 1 C-0.25 3.0625 -0.25 3.0625 -3 5 C-5.3125 4.75 -5.3125 4.75 -7 4 C-1.7265625 0.77734375 -1.7265625 0.77734375 0 0 Z " fill="#E0675D" transform="translate(58,233)"/>
<path d="M0 0 C2.475 0.99 2.475 0.99 5 2 C3.66666667 3.33333333 2.33333333 4.66666667 1 6 C0.34 4.35 -0.32 2.7 -1 1 C-0.67 0.67 -0.34 0.34 0 0 Z " fill="#F3F4F4" transform="translate(297,38)"/>
<path d="" fill="#000000" transform="translate(0,0)"/>
</svg>
